<svg enable-background="new 0 0 59.2 54.1" viewBox="0 0 59.2 54.1" xmlns="http://www.w3.org/2000/svg"><circle cx="30.6" cy="26.7" fill="#05d8c5" fill-opacity=".28" r="14.3"/><g fill="none" stroke="#05d8c5" stroke-miterlimit="10" stroke-width="3"><path d="m57.4 27.2c-6-9.4-16.4-15.7-28.1-15.7-11.8 0-22.1 6.2-28.1 15.7"/><path d="m57.4 25.7c-6 9.4-16.4 15.6-28.1 15.6-11.8 0-22.1-6.2-28.1-15.6"/><path d="m5.1 22.3 18.9 18.8"/><path d="m10.9 18.2 22.6 22.5"/><path d="m9.9 7.7 38.4 38.4" stroke-linecap="round"/><path d="m33.6 11.9c7.1 1.2 12.4 7.2 12.4 14.6 0 4.3-1.9 8.2-4.8 11"/><path d="m23.4 21.6c1.4-1.4 3.4-2.3 5.6-2.3 4.3 0 7.8 3.5 7.8 7.8 0 2.2-.9 4.1-2.3 5.5"/></g></svg>