<?xml version="1.0" encoding="utf-8"?>
<!-- Generator: Adobe Illustrator 17.1.0, SVG Export Plug-In . SVG Version: 6.00 Build 0)  -->
<!DOCTYPE svg PUBLIC "-//W3C//DTD SVG 1.1//EN" "http://www.w3.org/Graphics/SVG/1.1/DTD/svg11.dtd">
<svg version="1.1" id="Layer_1" xmlns="http://www.w3.org/2000/svg" xmlns:xlink="http://www.w3.org/1999/xlink" x="0px" y="0px"
	 viewBox="0 0 50 50" enable-background="new 0 0 50 50" xml:space="preserve">
<g>
	<g>
		<path fill="#12A087" d="M25.2,0.1C11.5,0.1,0.4,11.2,0.4,24.9s11.1,24.8,24.8,24.8S50,38.6,50,24.9S38.9,0.1,25.2,0.1z M25.2,45.9
			c-11.6,0-20.9-9.4-20.9-20.9S13.6,4,25.2,4s20.9,9.4,20.9,20.9S36.7,45.9,25.2,45.9z"/>
		<g>
			<g>
				<path fill="#12A087" d="M23.8,18.8c0.5,0.6,0.7,1.4,0.7,2.3c0,0.9-0.2,1.7-0.7,2.2c-0.3,0.3-0.6,0.6-1.1,0.9
					c0.8,0.3,1.3,0.7,1.7,1.3c0.4,0.6,0.6,1.4,0.6,2.2c0,0.9-0.2,1.7-0.7,2.4c-0.3,0.5-0.6,0.9-1.1,1.2c-0.5,0.4-1,0.6-1.7,0.7
					c-0.6,0.1-1.4,0.2-2.1,0.2h-6.7V17.2h7.2C21.8,17.2,23.1,17.8,23.8,18.8z M15.8,19.8v3.3h3.6c0.6,0,1.2-0.1,1.6-0.4
					c0.4-0.3,0.6-0.7,0.6-1.3c0-0.7-0.3-1.2-0.8-1.4c-0.5-0.2-1.1-0.2-1.8-0.2L15.8,19.8L15.8,19.8z M15.8,25.7v4h3.6
					c0.6,0,1.2-0.1,1.5-0.3c0.6-0.3,1-1,1-1.9c0-0.8-0.3-1.3-1-1.6c-0.4-0.2-0.8-0.3-1.5-0.3L15.8,25.7L15.8,25.7z"/>
				<path fill="#12A087" d="M34.7,21.4c0.8,0.4,1.4,0.9,1.9,1.6c0.5,0.7,0.7,1.5,0.9,2.3c0.1,0.5,0.1,1.3,0.1,2.2h-8.1
					c0,1.1,0.4,1.9,1.2,2.4c0.5,0.3,1,0.4,1.6,0.4c0.6,0,1.2-0.2,1.6-0.5c0.2-0.2,0.4-0.5,0.6-0.8h3c-0.1,0.6-0.5,1.3-1.1,2
					c-1,1.1-2.4,1.6-4.2,1.6c-1.5,0-2.8-0.5-3.9-1.4c-1.1-0.9-1.7-2.4-1.7-4.5c0-1.9,0.5-3.4,1.5-4.4c1-1,2.3-1.5,4-1.5
					C33,20.8,33.9,21,34.7,21.4z M30.4,23.9c-0.4,0.4-0.7,1-0.8,1.7h5c-0.1-0.8-0.3-1.4-0.8-1.8c-0.5-0.4-1-0.6-1.7-0.6
					C31.3,23.3,30.8,23.5,30.4,23.9z"/>
			</g>
			<rect x="28.3" y="18.8" fill="#12A087" width="7.8" height="1.5"/>
		</g>
	</g>
</g>
</svg>
