<?xml version="1.0" encoding="utf-8"?>
<!-- Generator: Adobe Illustrator 17.1.0, SVG Export Plug-In . SVG Version: 6.00 Build 0)  -->
<!DOCTYPE svg PUBLIC "-//W3C//DTD SVG 1.1//EN" "http://www.w3.org/Graphics/SVG/1.1/DTD/svg11.dtd">
<svg version="1.1" id="Layer_1" xmlns="http://www.w3.org/2000/svg" xmlns:xlink="http://www.w3.org/1999/xlink" x="0px" y="0px"
	 viewBox="0 0 50 50" enable-background="new 0 0 50 50" xml:space="preserve">
<g>
	<g>
		<path fill="#12A087" d="M25.2,0.2C11.5,0.2,0.4,11.3,0.4,25s11.1,24.8,24.8,24.8S50,38.7,50,25S38.9,0.2,25.2,0.2z M25.2,46
			C13.6,46,4.3,36.6,4.3,25.1s9.3-21,20.9-21S46.1,13.5,46.1,25S36.7,46,25.2,46z"/>
	</g>
</g>
<g>
	<path fill="#12A087" d="M26.1,12.3c-0.7-0.5-1.6-0.5-2.3,0l-10.4,7.2c-0.6,0.4-0.9,1-0.9,1.7V29c0,0.7,0.3,1.3,0.9,1.7l10.6,7
		c0.7,0.5,1.6,0.5,2.3,0L37,30.6c0.6-0.4,0.9-1,0.9-1.7v-7.7c0-0.7-0.3-1.3-0.9-1.7L26.1,12.3z M34.1,20.7l-4,2.7l-3.7-2.7l0-5.3
		L34.1,20.7z M23.7,15.3v5.2l-3.8,2.7L16,20.7L23.7,15.3z M15,23.3l2.5,1.7L15,26.6V23.3z M23.7,34.4L16,29.2l3.8-2.7l3.9,2.6
		C23.7,29.1,23.7,34.4,23.7,34.4z M22.3,24.9l2.5-1.7l2.9,1.9l-2.6,1.7L22.3,24.9z M26.5,34.4v-5.3l3.7-2.5l4,2.6L26.5,34.4z
		 M35.2,26.7L32.6,25l2.6-1.8V26.7z"/>
</g>
</svg>
