<?xml version="1.0" encoding="utf-8"?>
<!-- Generator: Adobe Illustrator 17.1.0, SVG Export Plug-In . SVG Version: 6.00 Build 0)  -->
<!DOCTYPE svg PUBLIC "-//W3C//DTD SVG 1.1//EN" "http://www.w3.org/Graphics/SVG/1.1/DTD/svg11.dtd">
<svg version="1.1" id="Layer_1" xmlns="http://www.w3.org/2000/svg" xmlns:xlink="http://www.w3.org/1999/xlink" x="0px" y="0px"
	 viewBox="0 333.6 743.9 28.2" enable-background="new 0 333.6 743.9 28.2" xml:space="preserve">
<line fill="none" stroke="#13A086" stroke-width="3.75" stroke-linecap="round" x1="17.3" y1="333.6" x2="9.3" y2="361.9"/>
<line fill="none" stroke="#13A086" stroke-width="3.75" stroke-linecap="round" x1="40.6" y1="333.6" x2="32.9" y2="361.9"/>
<line fill="none" stroke="#13A086" stroke-width="3.75" stroke-linecap="round" x1="64.2" y1="333.6" x2="56.2" y2="361.9"/>
<line fill="none" stroke="#13A086" stroke-width="3.75" stroke-linecap="round" x1="87.5" y1="333.6" x2="79.8" y2="361.9"/>
<line fill="none" stroke="#13A086" stroke-width="3.75" stroke-linecap="round" x1="111.1" y1="333.6" x2="103.1" y2="361.9"/>
<line fill="none" stroke="#13A086" stroke-width="3.75" stroke-linecap="round" x1="134.3" y1="333.6" x2="126.6" y2="361.9"/>
<line fill="none" stroke="#13A086" stroke-width="3.75" stroke-linecap="round" x1="157.9" y1="333.6" x2="149.9" y2="361.9"/>
<line fill="none" stroke="#13A086" stroke-width="3.75" stroke-linecap="round" x1="181.2" y1="333.6" x2="173.5" y2="361.9"/>
<line fill="none" stroke="#13A086" stroke-width="3.75" stroke-linecap="round" x1="204.8" y1="333.6" x2="196.8" y2="361.9"/>
<line fill="none" stroke="#13A086" stroke-width="3.75" stroke-linecap="round" x1="228.1" y1="333.6" x2="220.4" y2="361.9"/>
<line fill="none" stroke="#13A086" stroke-width="3.75" stroke-linecap="round" x1="251.7" y1="333.6" x2="243.7" y2="361.9"/>
<line fill="none" stroke="#13A086" stroke-width="3.75" stroke-linecap="round" x1="275" y1="333.6" x2="267.3" y2="361.9"/>
<line fill="none" stroke="#13A086" stroke-width="3.75" stroke-linecap="round" x1="298.6" y1="333.6" x2="290.6" y2="361.9"/>
<line fill="none" stroke="#13A086" stroke-width="3.75" stroke-linecap="round" x1="321.8" y1="333.6" x2="314.1" y2="361.9"/>
<line fill="none" stroke="#13A086" stroke-width="3.75" stroke-linecap="round" x1="345.4" y1="333.6" x2="337.4" y2="361.9"/>
<line fill="none" stroke="#13A086" stroke-width="3.75" stroke-linecap="round" x1="368.7" y1="333.6" x2="361" y2="361.9"/>
<line fill="none" stroke="#13A086" stroke-width="3.75" stroke-linecap="round" x1="392.3" y1="333.6" x2="384.3" y2="361.9"/>
<line fill="none" stroke="#13A086" stroke-width="3.75" stroke-linecap="round" x1="415.8" y1="333.6" x2="407.7" y2="361.9"/>
<line fill="none" stroke="#13A086" stroke-width="3.75" stroke-linecap="round" x1="439.2" y1="333.6" x2="431.2" y2="361.9"/>
<line fill="none" stroke="#13A086" stroke-width="3.75" stroke-linecap="round" x1="462.6" y1="333.6" x2="454.6" y2="361.9"/>
<line fill="none" stroke="#13A086" stroke-width="3.75" stroke-linecap="round" x1="486.1" y1="333.6" x2="478.1" y2="361.9"/>
<line fill="none" stroke="#13A086" stroke-width="3.75" stroke-linecap="round" x1="509.5" y1="333.6" x2="501.5" y2="361.9"/>
<line fill="none" stroke="#13A086" stroke-width="3.75" stroke-linecap="round" x1="532.9" y1="333.6" x2="524.9" y2="361.9"/>
<line fill="none" stroke="#13A086" stroke-width="3.75" stroke-linecap="round" x1="556.4" y1="333.6" x2="548.4" y2="361.9"/>
<line fill="none" stroke="#13A086" stroke-width="3.75" stroke-linecap="round" x1="579.8" y1="333.6" x2="571.8" y2="361.9"/>
<line fill="none" stroke="#13A086" stroke-width="3.75" stroke-linecap="round" x1="603.3" y1="333.6" x2="595.2" y2="361.9"/>
<line fill="none" stroke="#13A086" stroke-width="3.75" stroke-linecap="round" x1="626.7" y1="333.6" x2="618.7" y2="361.9"/>
<line fill="none" stroke="#13A086" stroke-width="3.75" stroke-linecap="round" x1="650.1" y1="333.6" x2="642.1" y2="361.9"/>
<line fill="none" stroke="#13A086" stroke-width="3.75" stroke-linecap="round" x1="673.6" y1="333.6" x2="665.6" y2="361.9"/>
<line fill="none" stroke="#13A086" stroke-width="3.75" stroke-linecap="round" x1="697" y1="333.6" x2="689" y2="361.9"/>
<line fill="none" stroke="#13A086" stroke-width="3.75" stroke-linecap="round" x1="720.4" y1="333.6" x2="712.4" y2="361.9"/>
<line fill="none" stroke="#13A086" stroke-width="3.75" stroke-linecap="round" x1="743.9" y1="333.6" x2="735.9" y2="361.9"/>
</svg>
