<?xml version="1.0" encoding="utf-8"?>
<!-- Generator: Adobe Illustrator 17.1.0, SVG Export Plug-In . SVG Version: 6.00 Build 0)  -->
<!DOCTYPE svg PUBLIC "-//W3C//DTD SVG 1.1//EN" "http://www.w3.org/Graphics/SVG/1.1/DTD/svg11.dtd">
<svg version="1.1" id="Layer_1" xmlns="http://www.w3.org/2000/svg" xmlns:xlink="http://www.w3.org/1999/xlink" x="0px" y="0px"
	 viewBox="0 0 50 50" enable-background="new 0 0 50 50" xml:space="preserve">
<g>
	<path fill="#12A087" d="M23.8,17.9c-3.7-6.5-7.6-11.8-7.9-12.2C10,8.5,5.6,13.9,4.3,20.5C4.8,20.5,13.6,20.6,23.8,17.9z M26.4,25
		c0.3-0.1,0.6-0.2,0.8-0.3c-0.5-1.2-1.1-2.4-1.7-3.6c-10.9,3.3-21.4,3-21.8,3c0,0.2,0,0.5,0,0.7c0,5.4,2.1,10.4,5.4,14.2v0
		C9.2,39,15,28.7,26.4,25z M12,41.6L12,41.6c-0.2-0.1-0.3-0.3-0.5-0.4C11.8,41.4,12,41.6,12,41.6z M19.9,4.3
		C19.9,4.3,19.9,4.3,19.9,4.3C19.9,4.3,19.9,4.3,19.9,4.3L19.9,4.3z M39,8.9c-3.7-3.3-8.6-5.3-14-5.3c-1.7,0-3.4,0.2-5,0.6
		c0.3,0.4,4.3,5.7,7.9,12.4C35.9,13.6,38.9,9,39,8.9z M25,49.7c-13.7,0-24.8-11.1-24.8-24.8C0.2,11.1,11.3,0,25,0
		c13.7,0,24.8,11.1,24.8,24.8C49.8,38.5,38.7,49.7,25,49.7z M28.6,28.3c-12.4,4.3-16.5,13-16.6,13.2c3.6,2.8,8.1,4.5,13,4.5
		c2.9,0,5.7-0.6,8.3-1.7c-0.3-1.8-1.6-8.4-4.5-16.1C28.7,28.3,28.6,28.3,28.6,28.3z M29.5,19.8c0.5,1,1,2,1.4,3.1
		c0.2,0.4,0.3,0.7,0.5,1.1c7.3-0.9,14.5,0.6,14.8,0.7c-0.1-5-1.8-9.6-4.8-13.2C41.3,11.4,37.9,16.3,29.5,19.8z M32.7,27.3
		c2.8,7.6,3.9,13.9,4.1,15.1c4.8-3.2,8.1-8.3,9.1-14.2C45.5,28.1,39.5,26.2,32.7,27.3z"/>
</g>
</svg>
