<?xml version="1.0" encoding="utf-8"?>
<!-- Generator: Adobe Illustrator 17.1.0, SVG Export Plug-In . SVG Version: 6.00 Build 0)  -->
<!DOCTYPE svg PUBLIC "-//W3C//DTD SVG 1.1//EN" "http://www.w3.org/Graphics/SVG/1.1/DTD/svg11.dtd">
<svg version="1.1" id="Layer_1" xmlns="http://www.w3.org/2000/svg" xmlns:xlink="http://www.w3.org/1999/xlink" x="0px" y="0px"
	 viewBox="0 0 50 50" enable-background="new 0 0 50 50" xml:space="preserve">
<g>
	<path fill="#12A087" d="M23.9,18.1C20.2,11.6,16.4,6.4,16.1,6C10.3,8.8,5.9,14.1,4.6,20.6C5.1,20.6,13.8,20.7,23.9,18.1z
		 M26.5,25.1c0.3-0.1,0.6-0.2,0.8-0.3c-0.5-1.2-1.1-2.4-1.7-3.6c-10.8,3.3-21.2,3-21.5,3c0,0.2,0,0.5,0,0.7c0,5.3,2.1,10.3,5.3,14
		l0,0C9.5,38.9,15.2,28.7,26.5,25.1z M12.2,41.5L12.2,41.5c-0.2-0.1-0.3-0.3-0.5-0.4C12,41.3,12.2,41.5,12.2,41.5z M20,4.6L20,4.6
		L20,4.6L20,4.6z M38.9,9.2c-3.7-3.3-8.5-5.2-13.8-5.2c-1.7,0-3.4,0.2-4.9,0.6c0.3,0.4,4.3,5.6,7.8,12.3
		C35.9,13.8,38.8,9.3,38.9,9.2z M25.1,49.5c-13.5,0-24.5-11-24.5-24.5c0-13.6,11-24.6,24.5-24.6s24.5,11,24.5,24.5
		S38.6,49.5,25.1,49.5z M28.6,28.3c-12.3,4.3-16.3,12.8-16.4,13c3.6,2.8,8,4.4,12.8,4.4c2.9,0,5.6-0.6,8.2-1.7
		c-0.3-1.8-1.6-8.3-4.4-15.9C28.7,28.3,28.6,28.3,28.6,28.3z M29.5,19.9c0.5,1,1,2,1.4,3.1c0.2,0.4,0.3,0.7,0.5,1.1
		c7.2-0.9,14.3,0.6,14.6,0.7c-0.1-4.9-1.8-9.5-4.7-13C41.2,11.6,37.8,16.5,29.5,19.9z M32.7,27.4c2.8,7.5,3.9,13.7,4.1,14.9
		c4.7-3.2,8-8.2,9-14C45.3,28.1,39.4,26.3,32.7,27.4z"/>
</g>
</svg>
