<?xml version="1.0" encoding="utf-8"?>
<!-- Generator: Adobe Illustrator 21.1.0, SVG Export Plug-In . SVG Version: 6.00 Build 0)  -->
<svg version="1.1" id="Layer_1" xmlns="http://www.w3.org/2000/svg" xmlns:xlink="http://www.w3.org/1999/xlink" x="0px" y="0px"
	 viewBox="0 0 50 50" style="enable-background:new 0 0 50 50;" xml:space="preserve">
<style type="text/css">
	.st0{fill:#393939;}
</style>
<g>
	<g>
		<path class="st0" d="M24.9-0.1C11.1-0.1,0,11.1,0,24.8s11.1,24.9,24.9,24.9s24.9-11.1,24.9-24.9S38.6-0.1,24.9-0.1z M24.9,45.8
			c-11.6,0-21-9.4-21-21s9.4-21,21-21s21,9.4,21,21S36.5,45.8,24.9,45.8z"/>
	</g>
</g>
<g>
	<g>
		<path class="st0" d="M33,32.3c0.5,0,0.8-0.2,1.2-0.4l-5.6-5.6c-0.1,0.1-0.3,0.2-0.4,0.3c-0.4,0.3-0.7,0.5-1,0.7s-0.6,0.4-1,0.5
			c-0.4,0.2-0.8,0.3-1.2,0.3l0,0l0,0c-0.4,0-0.8-0.1-1.2-0.3c-0.4-0.2-0.8-0.4-1-0.5c-0.3-0.2-0.6-0.4-1-0.7
			c-0.1-0.1-0.3-0.2-0.4-0.3l-5.6,5.6c0.3,0.3,0.7,0.4,1.2,0.4H33z"/>
		<path class="st0" d="M16.1,22.8c-0.4-0.3-0.8-0.6-1.1-1v8.5l4.9-4.9C18.9,24.8,17.7,23.9,16.1,22.8z"/>
		<path class="st0" d="M33.6,22.8c-1.5,1-2.8,1.9-3.8,2.6l4.9,4.9v-8.5C34.4,22.2,34,22.5,33.6,22.8z"/>
		<path class="st0" d="M33,16.8H16.8c-0.6,0-1,0.2-1.3,0.6S15,18.3,15,18.8s0.2,1,0.6,1.5c0.4,0.5,0.8,1,1.3,1.3
			c0.3,0.2,1,0.7,2.3,1.6c0.7,0.5,1.3,0.9,1.8,1.2c0.4,0.3,0.8,0.5,1.1,0.8c0,0,0.1,0.1,0.2,0.1c0.1,0.1,0.2,0.1,0.3,0.2
			c0.2,0.2,0.5,0.3,0.6,0.4c0.2,0.1,0.4,0.2,0.6,0.4s0.4,0.2,0.6,0.3c0.2,0.1,0.4,0.1,0.5,0.1l0,0l0,0c0.2,0,0.4,0,0.5-0.1
			c0.2-0.1,0.4-0.2,0.6-0.3c0.2-0.1,0.4-0.3,0.6-0.4s0.4-0.3,0.6-0.4c0.1-0.1,0.2-0.2,0.3-0.2c0.1-0.1,0.1-0.1,0.2-0.1
			c0.2-0.2,0.6-0.4,1.1-0.8c0.9-0.6,2.3-1.6,4-2.8c0.5-0.4,1-0.8,1.4-1.4c0.4-0.5,0.5-1.1,0.5-1.6s-0.2-0.9-0.5-1.3
			C33.8,17,33.4,16.8,33,16.8z"/>
	</g>
</g>
</svg>
