<?xml version="1.0" encoding="utf-8"?>
<!-- Generator: Adobe Illustrator 26.3.1, SVG Export Plug-In . SVG Version: 6.00 Build 0)  -->
<svg version="1.1" id="Layer_1" xmlns="http://www.w3.org/2000/svg" xmlns:xlink="http://www.w3.org/1999/xlink" x="0px" y="0px"
	 viewBox="0 0 59.2 54.1" style="enable-background:new 0 0 59.2 54.1;" xml:space="preserve">
<style type="text/css">
	.st0{fill:#05D8C5;fill-opacity:0.28;}
	.st1{fill:none;stroke:#05D8C5;stroke-width:3;stroke-linecap:round;stroke-linejoin:round;stroke-miterlimit:10;}
	.st2{fill:#05D8C5;}
	.st3{fill:#05D8C5;stroke:#05D8C5;stroke-width:0.85;stroke-miterlimit:10;}
</style>
<polygon class="st0" points="29.8,44.7 27.6,41.6 14.4,41 50,9.5 52.1,25.3 56.4,27.7 56.3,44.3 "/>
<g>
	<polyline class="st1" points="6.2,14.4 6.2,8.2 51.5,8.2 51.5,24.7 	"/>
	<polyline class="st1" points="27.3,41.4 6.2,41.4 6.2,32.5 	"/>
	<line class="st1" x1="20.5" y1="17.4" x2="50.7" y2="17.4"/>
	<circle class="st2" cx="45.9" cy="12.7" r="1.4"/>
	<g>
		<circle class="st1" cx="12" cy="24" r="10.4"/>
		<path class="st3" d="M5.4,33c0.4,0.6,0.8,1.2,1.6,1.4c0-1.3,0-2.6,0.7-3.8c1-1.7,3.1-2.6,5.1-2.3c2,0.4,3.6,2.1,3.8,4.1
			c0.1,0.7,0.1,1.4,0.1,2.1l0,0c0.8-0.3,1.5-0.8,1.9-1.4l0,0c-0.1-2.6-1.3-4.6-3.6-6c1.4-1.3,2-2.9,1.6-4.8
			c-0.3-1.2-0.9-2.2-1.9-2.9c-2-1.4-4.8-1.2-6.4,0.6c-1.9,2-1.8,4.5,0.3,7.1c-1.1,0.7-2.1,1.5-2.7,2.7c-0.5,0.9-0.8,1.9-0.9,3
			C5.1,32.7,5.3,32.8,5.4,33z M11.8,20.4c1.6,0,3,1.4,2.9,3c0,1.6-1.3,2.9-2.9,2.9S8.9,25,8.9,23.4C8.9,21.7,10.2,20.4,11.8,20.4z"
			/>
	</g>
</g>
<rect x="28.3" y="26.3" class="st1" width="29.1" height="19"/>
<g>
	<line class="st1" x1="51.8" y1="32.7" x2="46.7" y2="32.7"/>
	<line class="st1" x1="41.5" y1="32.7" x2="33.8" y2="32.7"/>
	<line class="st1" x1="33.9" y1="38.6" x2="38.2" y2="38.6"/>
	<line class="st1" x1="43.5" y1="38.6" x2="51.8" y2="38.6"/>
</g>
</svg>
