<?xml version="1.0" encoding="utf-8"?>
<!-- Generator: Adobe Illustrator 26.3.1, SVG Export Plug-In . SVG Version: 6.00 Build 0)  -->
<svg version="1.1" id="Layer_1" xmlns="http://www.w3.org/2000/svg" xmlns:xlink="http://www.w3.org/1999/xlink" x="0px" y="0px"
	 viewBox="0 0 59.2 54.1" style="enable-background:new 0 0 59.2 54.1;" xml:space="preserve">
<style type="text/css">
	.st0{fill:#05D8C5;fill-opacity:0.28;}
	.st1{fill:#05D8C5;stroke:#05D8C5;stroke-miterlimit:10;}
</style>
<circle class="st0" cx="27" cy="18" r="15"/>
<g id="CrETiu_00000146457422194140070690000005303770578366012823_">
	<g>
		<path class="st1" d="M26.7,2.7c0.5,0.1,1,0.1,1.5,0.2c6,1,10.6,4.2,13.5,9.5c3.3,6.2,3,12.4-0.5,18.5c-0.1,0.1-0.2,0.3-0.4,0.6
			c0.2,0.1,0.3,0.2,0.5,0.3c3.9,3.9,7.8,7.8,11.8,11.8c1.1,1.1,1.6,2.4,1.1,4c-0.7,2.4-3.8,3.3-5.7,1.7c-0.2-0.2-0.4-0.4-0.7-0.6
			c-4.1-3.9-8-7.8-11.8-11.7c-0.1-0.1-0.2-0.3-0.3-0.3c-1.1,0.6-2.1,1.2-3.2,1.6c-3.9,1.6-7.9,1.9-12,0.7c-4.6-1.3-8.1-4-10.7-8
			c-1.6-2.5-2.5-5.3-2.8-8.3c0-0.1,0-0.2-0.1-0.3c0-0.9,0-1.7,0-2.6c0-0.1,0.1-0.2,0.1-0.3c0.2-2.6,0.9-5,2.2-7.2
			c3-5.3,7.5-8.4,13.4-9.5c0.5-0.1,1-0.1,1.5-0.2C25,2.7,25.8,2.7,26.7,2.7z M8.7,21.2c0,9.2,7.5,16.6,16.7,16.6
			c9.1,0,16.6-7.5,16.6-16.6C42,12,34.5,4.6,25.4,4.6C16.2,4.5,8.7,12.1,8.7,21.2z M41.1,39.6C41.1,39.5,41.2,39.6,41.1,39.6
			c2.7,2.7,5.3,5.3,8,8c0.1,0.1,0.2,0.2,0.3,0.3c1,0.8,2.5,0.3,2.9-1c0.2-0.8,0-1.4-0.6-2c-2.6-2.6-5.2-5.2-7.9-7.9
			c-0.1-0.1-0.1-0.1-0.1-0.1C42.9,37.8,42,38.7,41.1,39.6z M39.8,38.1c0.9-0.8,1.7-1.7,2.5-2.5c-1-1-1.8-1.8-2.5-2.5
			c-0.8,0.8-1.7,1.7-2.5,2.5C38,36.4,38.9,37.2,39.8,38.1z"/>
		<path class="st1" d="M27.1,10.3c3.9,0.3,6.7,2.2,8.3,5.8c0.2,0.5,0.1,1-0.3,1.2c-0.4,0.2-0.8,0-1.1-0.5c-0.9-2.2-2.5-3.7-4.7-4.5
			c-0.8-0.3-1.6-0.3-2.4-0.4c-0.5-0.1-0.8-0.4-0.8-0.8c0-0.4,0.4-0.7,0.8-0.7C26.9,10.3,27,10.3,27.1,10.3z"/>
		<path class="st1" d="M37,20.9c0,0.4-0.4,0.8-0.8,0.8c-0.4,0-0.8-0.4-0.8-0.8s0.4-0.8,0.8-0.8S37,20.5,37,20.9z"/>
	</g>
</g>
</svg>
