<?xml version="1.0" encoding="utf-8"?>
<!-- Generator: Adobe Illustrator 26.3.1, SVG Export Plug-In . SVG Version: 6.00 Build 0)  -->
<svg version="1.1" id="Layer_1" xmlns="http://www.w3.org/2000/svg" xmlns:xlink="http://www.w3.org/1999/xlink" x="0px" y="0px"
	 viewBox="0 0 59.2 54.1" style="enable-background:new 0 0 59.2 54.1;" xml:space="preserve">
<style type="text/css">
	.st0{fill:#05D8C5;fill-opacity:0.28;}
	.st1{fill:none;stroke:#05D8C5;stroke-width:3;stroke-miterlimit:10;}
	.st2{fill:none;stroke:#000000;stroke-width:3;stroke-miterlimit:10;}
	.st3{fill:none;stroke:#05D8C5;stroke-width:3;stroke-linecap:round;stroke-miterlimit:10;}
</style>
<circle class="st0" cx="30.6" cy="26.7" r="14.3"/>
<path class="st1" d="M57.4,27.2c-6-9.4-16.4-15.7-28.1-15.7c-11.8,0-22.1,6.2-28.1,15.7"/>
<path class="st2" d="M57.4,27.1"/>
<path class="st1" d="M57.4,25.7c-6,9.4-16.4,15.6-28.1,15.6c-11.8,0-22.1-6.2-28.1-15.6"/>
<line class="st1" x1="5.1" y1="22.3" x2="24" y2="41.1"/>
<line class="st1" x1="10.9" y1="18.2" x2="33.5" y2="40.7"/>
<line class="st3" x1="9.9" y1="7.7" x2="48.3" y2="46.1"/>
<path class="st1" d="M33.6,11.9C40.7,13.1,46,19.1,46,26.5c0,4.3-1.9,8.2-4.8,11"/>
<path class="st1" d="M23.4,21.6c1.4-1.4,3.4-2.3,5.6-2.3c4.3,0,7.8,3.5,7.8,7.8c0,2.2-0.9,4.1-2.3,5.5"/>
</svg>
