<?xml version="1.0" encoding="utf-8"?>
<!-- Generator: Adobe Illustrator 21.1.0, SVG Export Plug-In . SVG Version: 6.00 Build 0)  -->
<svg version="1.1" id="Layer_1" xmlns="http://www.w3.org/2000/svg" xmlns:xlink="http://www.w3.org/1999/xlink" x="0px" y="0px"
	 viewBox="0 0 50 50" style="enable-background:new 0 0 50 50;" xml:space="preserve">
<style type="text/css">
	.st0{fill:#FFFFFF;}
</style>
<g>
	<path class="st0" d="M25,0.2C11.3,0.2,0.2,11.3,0.2,25S11.3,49.8,25,49.8S49.8,38.7,49.8,25S38.7,0.2,25,0.2z M25,46
		C13.4,46,4.1,36.6,4.1,25.1s9.3-21,20.9-21S45.9,13.5,45.9,25S36.5,46,25,46z"/>
	<rect x="14.7" y="21.5" class="st0" width="4.5" height="13.6"/>
	<path class="st0" d="M30.3,21.2c-0.6,0-1.1,0.1-1.6,0.2c-0.5,0.1-0.9,0.3-1.2,0.6c-0.3,0.3-0.6,0.5-0.8,0.7
		c-0.2,0.2-0.4,0.5-0.5,0.7v-1.9h-4.5l0,0.7c0,0.4,0,1.8,0,4.1c0,2.3,0,5.2,0,8.9h4.5v-7.6c0-0.5,0-0.8,0.2-1.1
		c0.2-0.5,0.5-0.9,0.9-1.2c0.4-0.3,0.9-0.5,1.4-0.5c0.8,0,1.4,0.3,1.7,0.8c0.4,0.5,0.6,1.3,0.6,2.3v7.3h4.5v-7.8
		c0-2-0.5-3.5-1.4-4.6C33.1,21.7,31.9,21.2,30.3,21.2z"/>
	<path class="st0" d="M17,14.9c-0.8,0-1.4,0.2-1.8,0.7c-0.5,0.4-0.7,1-0.7,1.7c0,0.7,0.2,1.2,0.7,1.7c0.5,0.4,1.1,0.7,1.8,0.7h0
		c0.8,0,1.4-0.2,1.9-0.7c0.5-0.4,0.7-1,0.7-1.7c0-0.7-0.2-1.2-0.7-1.7C18.4,15.2,17.8,14.9,17,14.9z"/>
</g>
</svg>
