<?xml version="1.0" encoding="utf-8"?>
<!-- Generator: Adobe Illustrator 22.1.0, SVG Export Plug-In . SVG Version: 6.00 Build 0)  -->
<svg version="1.1" id="Layer_1" xmlns="http://www.w3.org/2000/svg" xmlns:xlink="http://www.w3.org/1999/xlink" x="0px" y="0px"
	 viewBox="0 0 486 502" style="enable-background:new 0 0 486 502;" xml:space="preserve">
<style type="text/css">
	.st0{fill:#E5D079;}
	.st1{fill:#C0BCCA;}
	.st2{fill:#F4C8AC;}
</style>
<g>
	<path class="st0" d="M468.5,112.8c7.1,8.3,11,19.4,11.5,34.1c0.4,11.6-1.3,24.3-5.4,38.2c-4.4,14.9-8.9,29.8-14.4,44.9
		c-4.5,12.3-10.5,24.3-17.9,35.9c-4.4,6.9-9.3,13-14.5,18.8c-8.2,9.1-16.6,16-25.3,21.5c-8.4,5.3-16.7,9.6-24.7,12.2
		c-10.2,3.4-19.4,3.9-27.5,1.7c-0.6-0.2-1.3-0.1-2-0.1c-3.4,0.3-6.8,0.7-10.2,0.9c-1.2,0.1-2.3-0.2-3.4-0.2
		c-2.1-0.2-4.1-0.4-6.3-0.5c-3.1-0.2-5.5-1.6-7-4.3c-2.3-4.1-4.6-8.3-6.9-12.5c-0.5-1-0.9-2.3-1.2-3.6c-0.9-3.7-1.7-7.4-2.6-11.1
		c-1.5-6.2-1.2-13.7,0.4-22c0.9-4.7,2.1-9.5,3.3-14.3c3-12.4,7.5-25,12.1-37.7c2.2-6.2,4.3-12.4,6.9-18.6
		c3.9-9.3,8.5-18.3,13.4-27.4c3.5-6.5,7.3-12.9,11.4-19.1c4.8-7,10-13.3,15.5-19.1c8.8-9.3,17.8-17.5,27-23.7
		c6.4-4.3,12.6-7.1,18.5-8.5c10.7-2.6,19.9-1.7,28.3,1.2c6.3,2.2,12.1,5.3,17.2,9.6C466.1,110.3,467.3,111.7,468.5,112.8z"/>
</g>
<g>
	<path class="st1" d="M7,98.8C6.1,86.1,8,74.2,13.2,63c4.1-8.9,9.7-16.7,17.2-23.1c8-6.9,16-13.7,24.7-19.7
		c7.1-4.9,14.9-8.2,23.3-9.8c5-1,10.1-0.9,15.1-0.4c8,0.9,15.3,3.6,22.2,7.6c6.7,3.9,12.9,8.4,18.4,13.9c7,7,12.4,15.1,16.1,24.3
		c0.3,0.7,0.7,1.3,1.1,1.9c2,2.9,4.1,5.8,6.1,8.8c0.7,1.1,1.2,2.2,1.8,3.4c1.1,2.1,2.2,4.2,3.3,6.2c1.7,3,2.5,6.2,2.4,9.7
		c-0.2,5.2-0.5,10.4-0.8,15.6c-0.1,1.3-0.4,2.5-0.7,3.8c-0.9,3.5-1.8,7.1-2.7,10.6c-1.5,6-4.4,11.2-8.4,15.8
		c-2.3,2.6-4.7,5.1-7.1,7.5c-6.2,6.4-13.5,11.4-20.7,16.5c-3.6,2.5-7,5.1-10.8,7.3c-5.6,3.2-11.6,5.6-17.7,7.7
		c-4.4,1.5-8.9,2.8-13.5,3.5c-5.3,0.8-10.5,0.5-15.8-0.3c-8.4-1.3-16.5-3.6-24-7.7c-5.2-2.8-9.7-6.4-13.6-10.9
		c-7-8-11.8-17.2-15.5-27.1c-2.8-7.5-4.9-15.2-6.1-23.1C7.5,102.8,7.3,100.6,7,98.8z"/>
</g>
<g>
	<path class="st2" d="M31.3,464.3c9.6,11,21.6,19,36.8,23.8c12,3.8,24.8,5.3,38.6,4.2c14.7-1.2,29.5-2.4,44.2-4.9
		c12-2,23.6-5.9,34.4-11.7c6.5-3.4,12.1-7.7,17.3-12.4c8.2-7.4,14.1-15.8,18.6-24.8c4.3-8.8,7.5-17.7,9.1-26.7
		c2-11.5,1.3-22.6-2.1-33.2c-0.3-0.8-0.3-1.6-0.4-2.5c-0.2-4.1-0.3-8.1-0.5-12.2c-0.1-1.4-0.5-2.8-0.7-4.3c-0.5-2.6-1-5.2-1.4-7.8
		c-0.6-3.9-2.4-7.2-5.4-9.8c-4.6-4-9.2-8-13.9-12c-1.1-1-2.5-1.7-3.9-2.5c-3.9-2.1-7.9-4.2-11.8-6.4c-6.6-3.6-14.3-5.4-22.6-5.8
		c-4.7-0.2-9.5-0.1-14.3-0.1c-12.3,0.1-24.7,2.1-37.1,4.1c-6.1,1-12.2,1.8-18.2,3.2c-9,2.1-17.7,5.2-26.3,8.6
		c-6.2,2.5-12.3,5.2-18,8.5c-6.6,3.8-12.3,8.4-17.5,13.5c-8.3,8.1-15.5,16.8-20.6,26.4c-3.5,6.6-5.5,13.4-6.2,20.2
		c-1.1,12.4,1.1,23.9,5.2,35c3.2,8.4,7.2,16.4,12.4,23.8C28.5,460.7,30.1,462.7,31.3,464.3z"/>
</g>
</svg>
