<?xml version="1.0" encoding="utf-8"?>
<!-- Generator: Adobe Illustrator 21.1.0, SVG Export Plug-In . SVG Version: 6.00 Build 0)  -->
<svg version="1.1" id="Layer_1" xmlns="http://www.w3.org/2000/svg" xmlns:xlink="http://www.w3.org/1999/xlink" x="0px" y="0px"
	 viewBox="0 0 226.5 133.4" style="enable-background:new 0 0 226.5 133.4;" xml:space="preserve">
<style type="text/css">
	.st0{fill:#c0bcca;}
</style>
<path class="st0" d="M224.8,7.7c-6.3,3-11.6,3-16.6,0.1c-6.8-4-15.1-0.3-15.5-0.1l0.7,1.5l-0.7-1.5c-6.3,3-11.6,3-16.6,0.1
	c-6.8-4-15.1-0.3-15.5-0.1l0.8,1.8l-0.8-1.8c-6.3,3-11.6,3-16.6,0.1c-6.8-4-15.1-0.3-15.5-0.1l0.8,1.8l-0.8-1.8
	c-6.3,3-11.6,3-16.6,0.1c-6.8-4-15.1-0.3-15.5-0.1l0.8,1.8l-0.8-1.8c-6.3,3-11.6,3-16.6,0.1c-6.8-4-15.1-0.3-15.5-0.1l0.8,1.8
	l-0.8-1.8c-6.3,3-11.6,3-16.6,0.1c-6.8-4-15.1-0.3-15.5-0.1l0.7,1.5l-0.7-1.5c-6.3,3-11.6,3-16.6,0.1C9.1,3.8,0.8,7.6,0.4,7.7
	l1.7,3.6c0.1,0,6.7-3.1,11.8-0.1c3.1,1.8,6.3,2.7,9.7,2.7c3.3,0,6.8-0.9,10.6-2.6l0,0c0.1,0,6.8-3,11.8-0.1c3.1,1.8,6.3,2.7,9.7,2.7
	c3.3,0,6.8-0.9,10.6-2.6l0,0c0.1,0,6.7-3.1,11.8-0.1c3.1,1.8,6.3,2.7,9.7,2.7c3.3,0,6.8-0.9,10.6-2.6l0,0c0.1,0,6.7-3.1,11.8-0.1
	c3.1,1.8,6.3,2.7,9.7,2.7c3.3,0,6.8-0.9,10.6-2.6l0,0c0.1,0,6.7-3.1,11.8-0.1c3.1,1.8,6.3,2.7,9.7,2.7c3.3,0,6.8-0.9,10.6-2.6l0,0
	c0.1,0,6.7-3.1,11.8-0.1c3.1,1.8,6.3,2.7,9.7,2.7c3.3,0,6.8-0.9,10.6-2.6c0.2-0.1,6.8-3,11.8-0.1c3.1,1.8,6.3,2.7,9.7,2.7
	c3.3,0,6.8-0.9,10.6-2.6L224.8,7.7z"/>
<path class="st0" d="M224.8,26.6c-6.3,3-11.6,3-16.6,0.1c-6.8-4-15.1-0.3-15.5-0.1l0.7,1.5l-0.7-1.5c-6.3,3-11.6,3-16.6,0.1
	c-6.8-4-15.1-0.3-15.5-0.1l0.8,1.8l-0.8-1.8c-6.3,3-11.6,3-16.6,0.1c-6.8-4-15.1-0.3-15.5-0.1l0.8,1.8l-0.8-1.8
	c-6.3,3-11.6,3-16.6,0.1c-6.8-4-15.1-0.3-15.5-0.1l0.8,1.8l-0.8-1.8c-6.3,3-11.6,3-16.6,0.1c-6.8-4-15.1-0.3-15.5-0.1l0.8,1.8
	l-0.8-1.8c-6.3,3-11.6,3-16.6,0.1c-6.8-4-15.1-0.3-15.5-0.1l0.7,1.5l-0.7-1.5c-6.3,3-11.6,3-16.6,0.1c-6.8-4-15.1-0.3-15.5-0.1
	l1.7,3.6c0.1,0,6.7-3.1,11.8-0.1c3.1,1.8,6.3,2.7,9.7,2.7c3.3,0,6.8-0.9,10.6-2.6l0,0c0.1,0,6.8-3,11.8-0.1c3.1,1.8,6.3,2.7,9.7,2.7
	c3.3,0,6.8-0.9,10.6-2.6l0,0c0.1,0,6.7-3.1,11.8-0.1c3.1,1.8,6.3,2.7,9.7,2.7c3.3,0,6.8-0.9,10.6-2.6l0,0c0.1,0,6.7-3.1,11.8-0.1
	c3.1,1.8,6.3,2.7,9.7,2.7c3.3,0,6.8-0.9,10.6-2.6l0,0c0.1,0,6.7-3.1,11.8-0.1c3.1,1.8,6.3,2.7,9.7,2.7c3.3,0,6.8-0.9,10.6-2.6l0,0
	c0.1,0,6.7-3.1,11.8-0.1c3.1,1.8,6.3,2.7,9.7,2.7c3.3,0,6.8-0.9,10.6-2.6c0.2-0.1,6.8-3,11.8-0.1c3.1,1.8,6.3,2.7,9.7,2.7
	c3.3,0,6.8-0.9,10.6-2.6L224.8,26.6z"/>
<path class="st0" d="M224.8,45.5c-6.3,3-11.6,3-16.6,0.1c-6.8-4-15.1-0.3-15.5-0.1l0.7,1.5l-0.7-1.5c-6.3,3-11.6,3-16.6,0.1
	c-6.8-4-15.1-0.3-15.5-0.1l0.8,1.8l-0.8-1.8c-6.3,3-11.6,3-16.6,0.1c-6.8-4-15.1-0.3-15.5-0.1l0.8,1.8l-0.8-1.8
	c-6.3,3-11.6,3-16.6,0.1c-6.8-4-15.1-0.3-15.5-0.1l0.8,1.8l-0.8-1.8c-6.3,3-11.6,3-16.6,0.1c-6.8-4-15.1-0.3-15.5-0.1l0.8,1.8
	l-0.8-1.8c-6.3,3-11.6,3-16.6,0.1c-6.8-4-15.1-0.3-15.5-0.1l0.7,1.5l-0.7-1.5c-6.3,3-11.6,3-16.6,0.1c-6.8-4-15.1-0.3-15.5-0.1
	l1.7,3.6C2.2,49,8.8,46,13.9,49c3.1,1.8,6.3,2.7,9.7,2.7c3.3,0,6.8-0.9,10.6-2.6l0,0c0.1,0,6.8-3,11.8-0.1c3.1,1.8,6.3,2.7,9.7,2.7
	c3.3,0,6.8-0.9,10.6-2.6l0,0C66.3,49,72.9,46,78,49c3.1,1.8,6.3,2.7,9.7,2.7c3.3,0,6.8-0.9,10.6-2.6l0,0c0.1,0,6.7-3.1,11.8-0.1
	c3.1,1.8,6.3,2.7,9.7,2.7c3.3,0,6.8-0.9,10.6-2.6l0,0c0.1,0,6.7-3.1,11.8-0.1c3.1,1.8,6.3,2.7,9.7,2.7c3.3,0,6.8-0.9,10.6-2.6l0,0
	c0.1,0,6.7-3.1,11.8-0.1c3.1,1.8,6.3,2.7,9.7,2.7c3.3,0,6.8-0.9,10.6-2.6c0.2-0.1,6.8-3,11.8-0.1c3.1,1.8,6.3,2.7,9.7,2.7
	c3.3,0,6.8-0.9,10.6-2.6L224.8,45.5z"/>
<path class="st0" d="M224.8,64.3c-6.3,3-11.6,3-16.6,0.1c-6.8-4-15.1-0.3-15.5-0.1l0.7,1.5l-0.7-1.5c-6.3,3-11.6,3-16.6,0.1
	c-6.8-4-15.1-0.3-15.5-0.1l0.8,1.8l-0.8-1.8c-6.3,3-11.6,3-16.6,0.1c-6.8-4-15.1-0.3-15.5-0.1l0.8,1.8l-0.8-1.8
	c-6.3,3-11.6,3-16.6,0.1c-6.8-4-15.1-0.3-15.5-0.1l0.8,1.8l-0.8-1.8c-6.3,3-11.6,3-16.6,0.1c-6.8-4-15.1-0.3-15.5-0.1l0.8,1.8
	l-0.8-1.8c-6.3,3-11.6,3-16.6,0.1c-6.8-4-15.1-0.3-15.5-0.1l0.7,1.5l-0.7-1.5c-6.3,3-11.6,3-16.6,0.1c-6.8-4-15.1-0.3-15.5-0.1
	l1.7,3.6c0.1,0,6.7-3.1,11.8-0.1c3.1,1.8,6.3,2.7,9.7,2.7c3.3,0,6.8-0.9,10.6-2.6l0,0c0.1,0,6.8-3,11.8-0.1c3.1,1.8,6.3,2.7,9.7,2.7
	c3.3,0,6.8-0.9,10.6-2.6l0,0c0.1,0,6.7-3.1,11.8-0.1c3.1,1.8,6.3,2.7,9.7,2.7c3.3,0,6.8-0.9,10.6-2.6l0,0c0.1,0,6.7-3.1,11.8-0.1
	c3.1,1.8,6.3,2.7,9.7,2.7c3.3,0,6.8-0.9,10.6-2.6l0,0c0.1,0,6.7-3.1,11.8-0.1c3.1,1.8,6.3,2.7,9.7,2.7c3.3,0,6.8-0.9,10.6-2.6l0,0
	c0.1,0,6.7-3.1,11.8-0.1c3.1,1.8,6.3,2.7,9.7,2.7c3.3,0,6.8-0.9,10.6-2.6c0.2-0.1,6.8-3,11.8-0.1c3.1,1.8,6.3,2.7,9.7,2.7
	c3.3,0,6.8-0.9,10.6-2.6L224.8,64.3z"/>
<path class="st0" d="M224.8,83.2c-6.3,3-11.6,3-16.6,0.1c-6.8-4-15.1-0.3-15.5-0.1l0.7,1.5l-0.7-1.5c-6.3,3-11.6,3-16.6,0.1
	c-6.8-4-15.1-0.3-15.5-0.1l0.8,1.8l-0.8-1.8c-6.3,3-11.6,3-16.6,0.1c-6.8-4-15.1-0.3-15.5-0.1l0.8,1.8l-0.8-1.8
	c-6.3,3-11.6,3-16.6,0.1c-6.8-4-15.1-0.3-15.5-0.1l0.8,1.8l-0.8-1.8c-6.3,3-11.6,3-16.6,0.1c-6.8-4-15.1-0.3-15.5-0.1l0.8,1.8
	l-0.8-1.8c-6.3,3-11.6,3-16.6,0.1c-6.8-4-15.1-0.3-15.5-0.1l0.7,1.5l-0.7-1.5c-6.3,3-11.6,3-16.6,0.1c-6.8-4-15.1-0.3-15.5-0.1
	l1.7,3.6c0.1,0,6.7-3.1,11.8-0.1c3.1,1.8,6.3,2.7,9.7,2.7c3.3,0,6.8-0.9,10.6-2.6l0,0c0.1,0,6.8-3,11.8-0.1c3.1,1.8,6.3,2.7,9.7,2.7
	c3.3,0,6.8-0.9,10.6-2.6l0,0c0.1,0,6.7-3.1,11.8-0.1c3.1,1.8,6.3,2.7,9.7,2.7c3.3,0,6.8-0.9,10.6-2.6l0,0c0.1,0,6.7-3.1,11.8-0.1
	c3.1,1.8,6.3,2.7,9.7,2.7c3.3,0,6.8-0.9,10.6-2.6l0,0c0.1,0,6.7-3.1,11.8-0.1c3.1,1.8,6.3,2.7,9.7,2.7c3.3,0,6.8-0.9,10.6-2.6l0,0
	c0.1,0,6.7-3.1,11.8-0.1c3.1,1.8,6.3,2.7,9.7,2.7c3.3,0,6.8-0.9,10.6-2.6c0.2-0.1,6.8-3,11.8-0.1c3.1,1.8,6.3,2.7,9.7,2.7
	c3.3,0,6.8-0.9,10.6-2.6L224.8,83.2z"/>
<path class="st0" d="M224.8,102c-6.3,3-11.6,3-16.6,0.1c-6.8-4-15.1-0.3-15.5-0.1l0.7,1.5l-0.7-1.5c-6.3,3-11.6,3-16.6,0.1
	c-6.8-4-15.1-0.3-15.5-0.1l0.8,1.8l-0.8-1.8c-6.3,3-11.6,3-16.6,0.1c-6.8-4-15.1-0.3-15.5-0.1l0.8,1.8l-0.8-1.8
	c-6.3,3-11.6,3-16.6,0.1c-6.8-4-15.1-0.3-15.5-0.1l0.8,1.8l-0.8-1.8c-6.3,3-11.6,3-16.6,0.1c-6.8-4-15.1-0.3-15.5-0.1l0.8,1.8
	l-0.8-1.8c-6.3,3-11.6,3-16.6,0.1c-6.8-4-15.1-0.3-15.5-0.1l0.7,1.5l-0.7-1.5c-6.3,3-11.6,3-16.6,0.1c-6.8-4-15.1-0.3-15.5-0.1
	l1.7,3.6c0.1,0,6.7-3.1,11.8-0.1c3.1,1.8,6.3,2.7,9.7,2.7c3.3,0,6.8-0.9,10.6-2.6l0,0c0.1,0,6.8-3,11.8-0.1c3.1,1.8,6.3,2.7,9.7,2.7
	c3.3,0,6.8-0.9,10.6-2.6l0,0c0.1,0,6.7-3.1,11.8-0.1c3.1,1.8,6.3,2.7,9.7,2.7c3.3,0,6.8-0.9,10.6-2.6l0,0c0.1,0,6.7-3.1,11.8-0.1
	c3.1,1.8,6.3,2.7,9.7,2.7c3.3,0,6.8-0.9,10.6-2.6l0,0c0.1,0,6.7-3.1,11.8-0.1c3.1,1.8,6.3,2.7,9.7,2.7c3.3,0,6.8-0.9,10.6-2.6l0,0
	c0.1,0,6.7-3.1,11.8-0.1c3.1,1.8,6.3,2.7,9.7,2.7c3.3,0,6.8-0.9,10.6-2.6c0.2-0.1,6.8-3,11.8-0.1c3.1,1.8,6.3,2.7,9.7,2.7
	c3.3,0,6.8-0.9,10.6-2.6L224.8,102z"/>
<path class="st0" d="M224.8,120.9c-6.3,3-11.6,3-16.6,0.1c-6.8-4-15.1-0.3-15.5-0.1l0.7,1.5l-0.7-1.5c-6.3,3-11.6,3-16.6,0.1
	c-6.8-4-15.1-0.3-15.5-0.1l0.8,1.8l-0.8-1.8c-6.3,3-11.6,3-16.6,0.1c-6.8-4-15.1-0.3-15.5-0.1l0.8,1.8l-0.8-1.8
	c-6.3,3-11.6,3-16.6,0.1c-6.8-4-15.1-0.3-15.5-0.1l0.8,1.8l-0.8-1.8c-6.3,3-11.6,3-16.6,0.1c-6.8-4-15.1-0.3-15.5-0.1l0.8,1.8
	l-0.8-1.8c-6.3,3-11.6,3-16.6,0.1c-6.8-4-15.1-0.3-15.5-0.1l0.7,1.5l-0.7-1.5c-6.3,3-11.6,3-16.6,0.1c-6.8-4-15.1-0.3-15.5-0.1
	l1.7,3.6c0.1,0,6.7-3.1,11.8-0.1c3.1,1.8,6.3,2.7,9.7,2.7c3.3,0,6.8-0.9,10.6-2.6l0,0c0.1,0,6.8-3,11.8-0.1c3.1,1.8,6.3,2.7,9.7,2.7
	c3.3,0,6.8-0.9,10.6-2.6l0,0c0.1,0,6.7-3.1,11.8-0.1c3.1,1.8,6.3,2.7,9.7,2.7c3.3,0,6.8-0.9,10.6-2.6l0,0c0.1,0,6.7-3.1,11.8-0.1
	c3.1,1.8,6.3,2.7,9.7,2.7c3.3,0,6.8-0.9,10.6-2.6l0,0c0.1,0,6.7-3.1,11.8-0.1c3.1,1.8,6.3,2.7,9.7,2.7c3.3,0,6.8-0.9,10.6-2.6l0,0
	c0.1,0,6.7-3.1,11.8-0.1c3.1,1.8,6.3,2.7,9.7,2.7c3.3,0,6.8-0.9,10.6-2.6c0.2-0.1,6.8-3,11.8-0.1c3.1,1.8,6.3,2.7,9.7,2.7
	c3.3,0,6.8-0.9,10.6-2.6L224.8,120.9z"/>
</svg>
