<?xml version="1.0" encoding="utf-8"?>
<!-- Generator: Adobe Illustrator 21.1.0, SVG Export Plug-In . SVG Version: 6.00 Build 0)  -->
<svg version="1.1" id="Layer_1" xmlns="http://www.w3.org/2000/svg" xmlns:xlink="http://www.w3.org/1999/xlink" x="0px" y="0px"
	 viewBox="0 0 226.5 133.4" style="enable-background:new 0 0 226.5 133.4;" xml:space="preserve">
<style type="text/css">
	.st0{fill:#e5d079;}
</style>
<g>
	<path class="st0" d="M37.1,6l17.5,13.4L71.4,6.3l17.2,13.1L105.8,6l17.5,13.4l17-13.3l15.2,11.6c0,0,0,0,0,0l0.7,0.6l0,0l0.1,0.1
		l0.3-0.4l16.7-13L191,18.4l17-13.3l16.1,12.3l2.4-3.2L207.8,0l-0.3,0.4L191,13.3L173.5,0l-0.3,0.4l-0.1-0.2l-16.8,13.1L140.2,1
		l-0.3,0.4l-16.5,12.9L105.8,1l-0.3,0.4l-0.1-0.2L88.6,14.3L71.1,1l-0.8,1.1L54.6,14.3L37.1,1l-0.3,0.4l-0.1-0.2L19.9,14.3L2.4,1
		L0,4.2l19.9,15.2L37.1,6z"/>
	<path class="st0" d="M207.5,19.4L191,32.3L173.5,19l-0.3,0.4l-0.1-0.2l-16.8,13.1L140.2,20l-0.3,0.4l-16.5,12.9L105.8,20l-0.3,0.4
		l-0.1-0.2L88.6,33.3L71.1,20l-0.8,1.1L54.6,33.3L37.1,20l-0.3,0.4l-0.1-0.2L19.9,33.3L2.4,20L0,23.2l19.9,15.2L37.1,25l17.5,13.4
		l16.8-13.1l17.2,13.1L105.8,25l17.5,13.4l17-13.3l15.2,11.6c0,0,0,0,0,0l0.8,0.6l0,0l0.1,0.1l0.3-0.4l16.7-13L191,37.4l17-13.3
		l16.1,12.3l2.4-3.2L207.8,19L207.5,19.4z"/>
	<path class="st0" d="M207.5,38.4L191,51.3L173.5,38l-0.3,0.4l-0.1-0.2l-16.8,13.1L140.2,39l-0.3,0.4l-16.5,12.9L105.8,39l-0.3,0.4
		l-0.1-0.2L88.6,52.3L71.1,39l-0.8,1.1L54.6,52.3L37.1,39l-0.3,0.4l-0.1-0.2L19.9,52.3L2.4,39L0,42.2l19.9,15.2L37.1,44l17.5,13.4
		l16.8-13.1l17.2,13.1L105.8,44l17.5,13.4l17-13.3l15.2,11.6c0,0,0,0,0,0l0.8,0.6l0,0l0.1,0.1l0.3-0.4l16.7-13L191,56.4l17-13.3
		l16.1,12.3l2.4-3.2L207.8,38L207.5,38.4z"/>
	<path class="st0" d="M207.5,57.4L191,70.3L173.5,57l-0.3,0.4l-0.1-0.2l-16.8,13.1L140.2,58l-0.3,0.4l-16.5,12.9L105.8,58l-0.3,0.4
		l-0.1-0.2L88.6,71.3L71.1,58l-0.8,1.1L54.6,71.3L37.1,58l-0.3,0.4l-0.1-0.2L19.9,71.3L2.4,58L0,61.2l19.9,15.2L37.1,63l17.5,13.4
		l16.8-13.1l17.2,13.1L105.8,63l17.5,13.4l17-13.3l15.2,11.6c0,0,0,0,0,0l0.8,0.6l0,0l0.1,0.1l0.3-0.4l16.7-13L191,75.4l17-13.3
		l16.1,12.3l2.4-3.2L207.8,57L207.5,57.4z"/>
	<path class="st0" d="M207.5,76.4L191,89.3L173.5,76l-0.3,0.4l-0.1-0.2l-16.8,13.1L140.2,77l-0.3,0.4l-16.5,12.9L105.8,77l-0.3,0.4
		l-0.1-0.2L88.6,90.3L71.1,77l-0.8,1.1L54.6,90.3L37.1,77l-0.3,0.4l-0.1-0.2L19.9,90.3L2.4,77L0,80.2l19.9,15.2L37.1,82l17.5,13.4
		l16.8-13.1l17.2,13.1L105.8,82l17.5,13.4l17-13.3l15.2,11.6c0,0,0,0,0,0l0.8,0.6l0,0l0.1,0.1l0.3-0.4l16.7-13L191,94.4l17-13.3
		l16.1,12.3l2.4-3.2L207.8,76L207.5,76.4z"/>
	<path class="st0" d="M207.5,95.4L191,108.3L173.5,95l-0.3,0.4l-0.1-0.2l-16.8,13.1L140.2,96l-0.3,0.4l-16.5,12.9L105.8,96l-0.3,0.4
		l-0.1-0.2l-16.8,13.1L71.1,96l-0.8,1.1l-15.7,12.3L37.1,96l-0.3,0.4l-0.1-0.2l-16.8,13.1L2.4,96L0,99.2l19.9,15.2L37.1,101
		l17.5,13.4l16.8-13.1l17.2,13.1l17.2-13.4l17.5,13.4l17-13.3l15.2,11.6c0,0,0,0,0,0l0.8,0.6l0,0l0.1,0.1l0.3-0.4l16.7-13l17.5,13.4
		l17-13.3l16.1,12.3l2.4-3.2L207.8,95L207.5,95.4z"/>
	<path class="st0" d="M207.5,114.4L191,127.3L173.5,114l-0.3,0.4l-0.1-0.2l-16.8,13.1L140.2,115l-0.3,0.4l-16.5,12.9L105.8,115
		l-0.3,0.4l-0.1-0.2l-16.8,13.1L71.1,115l-0.8,1.1l-15.7,12.3L37.1,115l-0.3,0.4l-0.1-0.2l-16.8,13.1L2.4,115L0,118.2l19.9,15.2
		L37.1,120l17.5,13.4l16.8-13.1l17.2,13.1l17.2-13.4l17.5,13.4l17-13.3l15.3,11.7c0,0,0,0,0,0l0.7,0.5l0,0l0.1,0.1l0.3-0.4l16.7-13
		l17.5,13.4l17-13.3l16.1,12.3l2.4-3.2L207.8,114L207.5,114.4z"/>
</g>
</svg>
