<svg id="Layer_1" xmlns="http://www.w3.org/2000/svg" viewBox="0 0 634 568">
  <style>
    .st0{fill:#fff}
  </style>
  <path class="st0" d="M65.9 30c0 4.9 6 15.6 6.6 4.2.3-5-6.6-11.3-6.6-4.2zm5.3 20.6c.2-5-6.2-12.2-6.4-4-.2 5.5 5.7 15 6.4 4zm4.9-32.3c0-5.2-5.8-10.3-6.7-2.7-.4 3.7 6.7 11.9 6.7 2.7zm2.7 12.8c-1.2 6.3 1.6 6.1 4 .7 4.9-11.2-4-11.5-4-.7zM50.6 64.5c8 1.6 3.4-8.5-2.2-7.6-6.5 1-3.1 7.3 2.2 7.6zm2.9-36.4c-7.8 0 2.5 12.5 5.5 10.4 2.1-1.4-2.4-10.5-5.5-10.4zm6.8-4.7c-.2-4.8-8.8-10.3-8.4-3.4.2 3.4 7.4 8.7 8.4 3.4zm-8.1 61.5c3.2 0 7-7.3 5.1-9.1-3.4-3-14.2 9.8-5.1 9.1zM65 9.6c1.3-4.8-4.3-6.6-5.8-1.5-1.8 6 5.8 12.1 5.8 1.5zm5.2 70.3c0 2.9 2.3 10.6 5.6 5.2 1.2-2-1.8-10.6-4.8-9.3-.8 1.2-1.1 2.5-.8 4.1zM64 67.2c-6.1-.3-13.8 6.7-4.7 5.9 2.5-.2 9.4-4.4 4.7-5.9zM42.6 80.8c-.4-2.3-12 1.8-9.7 6.2 2.4 4.8 9.7-3.5 9.7-6.2zM68.4 96c.6-6.7-4.6-7.6-5.3-.7-.6 7 6.6 6.6 5.3.7zm6.4-48.1c-1.1 7.2 6.4.3 5.5-3.6-1.6-6.8-6.8-1.5-5.5 3.6zM59.4 93.3c.3-5-2.4-8.4-4.6-1.4-2.3 7.2 5.1 8.8 4.6 1.4zm.3-36.7c-6.1 0 6.1 10 7.2 9.2 3.6-2.5-4.2-8.9-7.2-9.2zm16.1 52.3c1.3-5-4.9-7.2-5.3.3-.3 7 5.3 4.9 5.3-.3zm-.8-40c-8.1 0 4.6 8.1 7.6 6 3.6-2.6-5.1-6.5-7.6-6zm-7.4 12.8c.1-.8-1-5.8-1.7-6-2.7-.7-4.1 8.6-3.4 9.4 2.2 2.8 5.3-.6 5.1-3.4zM70.5 60c.6 4.6 2.3 9.4 5 2.3 2.7-7-4.8-6.6-5-2.3zm-9.3-8.9c-.8-2-5.1-9.7-7.8-5.8-3.1 4.5 7.8 9.1 7.8 5.8zm7.3 67.5c-1.5-5.7-5.5-5.8-5.4 1.3.2 6.1 3.8 3.7 5.4-1.3zM81.4 96c-.7-3.4-5.3-11.2-5.9-4.2-.3 3.8 3.2 9.6 5.9 4.2zM41 100.3c2.6-.5 9-10.3 5.1-10.2-1.8 0-9.1 9.9-5.1 10.2zm16.7 9.9c0 4.8 3 5 4.3.8 2.1-6.7-5.9-8.6-4.3-.8zm-10.3-2c1.8 4.6 5.8-.1 5.1-3.8-1.3-6.5-5.4.2-5.1 3.8z"/>
  <path class="st0" d="M65.9 30c-.4-6.3 6.9-1.4 6.6 4.3-.7 10.9-6.8.9-6.6-4.3zm5.3 20.6c0 11.1-6.5 1.3-6.4-4.1.2-8.2 6.6-.9 6.4 4.1zm4.9-32.3c.5 1.8.2 3.3-.9 4.6-2.9 1.3-8.6-7.9-4.4-10.5 4.2-2.4 5.8 2.6 5.3 5.9zm2.7 12.8c0-8.8 8.1-11.9 4.4-1.2-1.9 5.6-4.4 9.6-4.4 1.2zm-39.5 6.1c2.3-2.3 11.7 2.1 10.2 5.9-1.5 4-11.2-.5-10.2-5.9zm11.3 27.3c-5.6-.3-8.5-6.8-2-7.5 4.6-.5 10.4 9.2 2 7.5zm2.9-36.4c3.9 0 7.3 9.5 4.7 10.3-3.2 1.1-11.7-10.3-4.7-10.3zm6.8-4.7c.5 1.2.5 2.4.1 3.6-2.5 1-9.9-6-8.5-8.6 2.9-5 8.3 1.7 8.4 5zm-8.1 61.5c-9 0 1.8-11.8 5.7-9 2.2 1.7-3.7 9.3-5.7 9zM65 9.6c.4 7.9-5.7 7.6-5.8-.1-.1-7.6 7-4.7 5.8.1zm5.2 70.3c-.3-1.6 0-2.9.8-4.1 3.1-1.2 5.7 7.7 4.8 9.3-3.2 5.4-5.5-2.4-5.6-5.2zM64 67.2c4.7 1.4-2.2 5.7-4.7 5.9-9.1.8-1.5-6.2 4.7-5.9zM42.6 80.8c0 2.5-7.8 11.3-9.6 6.1-1.5-4.3 9.2-8.3 9.6-6.1zM68.4 96c1.5 6.3-7.5 6.4-4.9-1.9 2.1-6.5 5.5-4 4.9 1.9zm6.4-48.1c-1.3-6.7 6.1-9.9 5.4-2.2-.4 3.6-6.5 8.8-5.4 2.2zM59.4 93.3c.5 6.8-6.9 5.8-4.6-1.5 1.9-6.3 4.9-4.6 4.6 1.5zm.3-36.7c3 .3 11 6.5 7.2 9.1-.7.4-13-8.1-7.2-9.1zm16.1 52.3c0 4.7-5.7 8.1-5.4.4.4-6.9 6.9-6.2 5.4-.4zm-.8-40c2.6-.3 11.2 3.5 7.6 6-3 2.1-16-6-7.6-6zm-7.4 12.8c.4 2.9-3.1 6.1-5.5 3.7-1.4-1.4 1.7-10.1 3.7-9.6.7.2 1.8 5 1.8 5.9zM43.2 75c-2.5-3.8 3.2-6.4 6.1-4.7 4.8 2.7-2.2 6.9-6.1 4.7zm27.3-15c0-4 7.9-5.1 5.2 2.1-2.6 6.7-4.3 2.9-5.2-2.1zm-9.3-8.9c.2 3-10.1-.6-8-4.9 2.8-5.8 6.4 3.4 8 4.9zm7.3 67.5c-1.2 4.9-5.3 7.4-5.5 1.2-.1-6.4 3.5-7.4 5.5-1.2zM81.4 96c-2.6 5.1-6.4-.1-5.9-4.2.8-6.7 5.2.7 5.9 4.2zM41 100.3c-4.1 0 3.1-10.9 5.1-10.4 3.7.8-2.4 10-5.1 10.4zm16.7 9.9c-1.3-6.5 5.7-6.7 4.7.1-.7 4.7-4.7 5.3-4.7-.1zm-10.3-2c-.1-3.2 3.9-10.8 5-3.9.5 3.5-4.2 9.1-5 3.9zm-28.8-49c-3.4 0-5-2.5-2-4.8 1.9-1.4 11.4.3 10.8 3.2-.3 1.3-8.3 1.6-8.8 1.6zm13.6-17.5c-2.5-.5-6.8.6-8.8-1.5-2.2-2.3-2-4.1.8-4.9 2.9-.9 11.3 6.4 8 6.4zM18.7 88.3c-8 1.3 5-12.5 8.1-6.3.9 1.8-6.2 6.4-8.1 6.3zm15.1-24.7c-2.9.7-3.7-2.9-2-4.5 1.6-1.5 10.7 1.8 9.9 3.3-.7 1-7.3 1.2-7.9 1.2zm8.3 45.3c-.3 2.6-4.2 8.9-5.8 4.1-.4-1.3 3.1-8.4 4.7-7.6.8.9 1.2 2.1 1.1 3.5zM34.7 71c4.7.9 0 5.6-2.8 5.5-6.6-.3-2.2-5.8 2.8-5.5zm-7.9 33.4c1.6.3 8.4-7.5 7.3-8.5-4.7-4.4-14.2 9.1-7.3 8.5z"/>
  <path class="st0" d="M26.8 104.4c-6.7.6 2.4-12.8 7.2-8.5 1 .9-5.2 8.9-7.2 8.5zM43.7 27c.8.8 1.2 1.8 1.3 3-1.8 1.6-9.1-2.3-9.4-3.9-1.1-5.4 6.7-2.1 8.1.9zM17.6 73.9c-7.5.7 6.4-11.8 8-5.3.5 1.7-6.2 5.6-8 5.3zm21.1-21.3c-3.1.6-11.2-2.4-5.4-5.3 3.5-1.7 14.5 5.3 5.4 5.3zM107.1 37.2c-2.3-2.3-11.7 2.1-10.2 5.9 1.6 4 11.3-.5 10.2-5.9zM95.8 64.5c5.6-.3 8.5-6.8 2-7.5-4.5-.5-10.4 9-2 7.5zm-2.9-36.4c-3.9 0-7.3 9.5-4.7 10.3 3.2 1.1 11.7-10.3 4.7-10.3zM88.4 22c-.5 1.2-.5 2.4-.1 3.6 2.5 1 9.9-6 8.5-8.6-2.9-5-8.3 1.7-8.4 5zm5.9 62.9c9 0-1.8-11.8-5.7-9-2.3 1.7 3.7 9.3 5.7 9zM81.5 9.6c-.4 7.9 5.7 7.6 5.8-.1 0-7.6-7.1-4.6-5.8.1zm-1.8 67.2c-5.4 0 .7 6.5 3.3 7.2 7.6 2.2 1.5-6.1-3.3-7.2zm24 4c0 2.5 7.8 11.3 9.6 6.1 1.4-3.7-8.6-8.9-9.6-6.1zM87 93.3c-.5 6.8 6.9 5.8 4.6-1.5-2-6.6-4.6-4.3-4.6 1.5zm-.3-36.7c-3 .3-11 6.5-7.2 9.1.7.5 13-8.3 7.2-9.1zm-1.4-5.5c-.2 3 10.1-.6 8-4.9-3-6.3-6.3 4.1-8 4.9zm-7.4 67.5c1.2 4.9 5.3 7.4 5.5 1.2.2-5.9-3.7-7.9-5.5-1.2zm27.4-18.3c4.1 0-3.1-10.9-5.1-10.4-3.7.8 2.5 9.9 5.1 10.4zm-16.5 9.9c1.7-8.7-7.5-5-4.4 1.4 1.8 3.9 4.4 2.9 4.4-1.4zm10.3-2c.1-3.2-3.9-10.8-5-3.9-.6 3.6 3.4 8.9 5 3.9zm28.7-49c3.4 0 5-2.5 2-4.8-1.9-1.4-11.4.3-10.8 3.2.2 1.3 8.2 1.6 8.8 1.6zm-13.5-17.5c2.5-.5 6.8.6 8.8-1.5 2.2-2.3 2-4.1-.8-4.9-3-.9-11.4 6.4-8 6.4zm13.5 46.6c8 1.3-5-12.5-8.1-6.3-1 1.8 6.2 6.4 8.1 6.3zm-15.2-24.7c2.9.7 3.7-2.9 2-4.5-1.6-1.5-10.7 1.8-9.9 3.3.6 1 7.2 1.2 7.9 1.2zm-8.3 45.3c.3 2.6 4.2 8.9 5.8 4.1.4-1.3-3.1-8.4-4.7-7.6-.9.9-1.3 2.1-1.1 3.5zm5.9-38.6c-6.9 1.2 2.3 7.5 5.7 6 7-3-2.3-6.2-5.7-6zm12 32.8c2.2-3.5-7.2-9.4-9.8-7.1-.5.4 6.3 12.7 9.8 7.1z"/>
  <path class="st0" d="M119.7 104.4c6.7.6-2.4-12.8-7.2-8.5-1.1.9 5.2 8.9 7.2 8.5zm-17-77.4c-.8.8-1.2 1.8-1.3 3 1.8 1.6 9.1-2.3 9.4-3.9 1-5.4-6.7-2.1-8.1.9zm26 46.9c7.4.7-6.4-11.6-8-5.2-.4 1.8 6.7 5.4 8 5.2zm-20.9-21.3c3.1.6 11.2-2.4 5.4-5.3-3.5-1.7-14.5 5.3-5.4 5.3zM94 72.9c4.3 2.4 6.6-2.3 2.2-5.1-.8-.5-8.7-2-9.1-.1-.4 1.4 5.8 4.7 6.9 5.2z"/>
  <g>
    <path class="st0" d="M506.5 447.9c4.4 5.2 20.4 10.7 10.9-1.5-2.2-2.8-6.9-7.9-10.9-4.6-2.1 1.8-1.9 4 0 6.1zm24.3 17.2c-4.3-5.6-18.4-6.5-10.5 1.6 4.8 5.1 20 10.5 10.5-1.6zm-24-38.9c-7.2-9.3-16-.5-8.1 5.1 4.9 3.3 15.9 1.5 8.1-5.1zm14.4 11c7.7 9.2 6.8 1.3 3.2-7-1.6-3.8-5.5-10-8.3-3.6-1.6 3.6 3 8.2 5.1 10.6zm.2 61.4c9.8-5.6-3.6-10.9-9-6-7.1 6.3 3.4 10.5 9 6zm-29.9-41.5c-7.7 6.8 12.8 11.1 15 6.7 1.8-3.7-11.2-10-15-6.7zm3-11.3c-5.8-6.3-19.5-.6-10.6 4.7 2.9 1.7 16.5.6 10.6-4.7zm47.2 73.3c3.5-2.8 1.2-15.6-3.3-13.7-5.8 2.2-5.2 21.2 3.3 13.7zm-54.8-92.2c-1.6-3.2-7.4-4.6-9.1-1-1.7 3.6 4.4 8 7.2 9.1 8.1 3.3 6-3.6 1.9-8.1zm69.5 70.3c1.5 1.8 6.9 7.3 9.9 4.7 3.6-3.1 0-7.6-2.9-9.1-5-2.6-13.6-2.2-7 4.4zm-18.1-7.8c-3.6 2.7-11.7 17.7-1.6 13 3.5-1.7 8-17.6 1.6-13zm-10.5 33.9c-2.2-1.9-11.4 12.9-4.5 15.4 7.5 2.7 5.2-11.9 4.5-15.4zm41.3-7.1c-4.5-6.2-11.2-6.6-6.9 2.5 4.7 9.8 14.2 4.4 6.9-2.5zM532.2 459c7.7 9.4 6-8.3 1.2-10.5-8.7-4.1-3.7 7.8-1.2 10.5zm24.7 62.3c-5.9-7.8-10-4.6-5.7 3.9 4.5 8.8 12.2 3.2 5.7-3.9zm-32.8-39.4c-5.4 5.4 15.8 5.7 16.9 2.5 1.8-5.1-14.8-3.9-16.9-2.5zm64.5 41.2c-.8-1.5-5.5-4.3-7.2-3.6-2.7 1.2.3 5.9 1 7.4 5.5 11 11.5 1.9 6.2-3.8zm-37-41.9c-8.1 7.2 9.5 4.1 12.4.7 5.9-7.3-9.4-3.1-12.4-.7zm3.5 20.3c-6-9.5-11.2-1.3-5.2 6.1 4.8 6 9.4-.8 5.2-6.1zm-16.4-25.8c6 5.4 12.5 6.1 6.9-3.6-4.1-7.1-10.8-1.1-6.9 3.6zm-18.2-.9c-3-3-18.1-4.3-12.4 3 2.6 3.3 14.3 1.9 12.4-3zm69.2 65.4c-8.6-5.6-9.8.6-4.3 7.2 5.8 6.9 6.8-2 4.3-7.2zm-6.7-35.8c-4.1-3.2-16.5-7.2-9.5 1.3 2.8 3.4 13.8 6.6 9.5-1.3zm-39.3 41.2c1.4-2 1.9-17.2-3.3-16.3-3.3.5-1.9 20.3 3.3 16.3zm26.9-4.5c6.2 7.8 9.8-3.2 1.7-7-7.1-3.3-5.5 3.4-1.7 7zm-12.9 7.3c5.3 3.8 5.9-3.7 3.1-7.5-6.3-8.2-8.1 2.4-3.1 7.5z"/>
    <path class="st0" d="M506.5 447.9c-6.3-8.4 9.6-7.5 12.8 1.5 3.6 9.8-9.5 2-12.8-1.5zm24.3 17.2c10.5 13.3-7.8 6-11.4.7-5.8-8.4 7.9-4.9 11.4-.7zm-24-38.9c8.5 8.5-6.5 8.4-9.8 3.3-5.4-8.2 5.2-10.2 9.8-3.3zm14.4 11c-2.2-2.4-6.6-6.9-5.2-10.6 2.3-5.7 5.7-1.4 7.5 1.9 3.8 6.7 7.2 19.8-2.3 8.7zm-36.6 42.4c0-4.3 11.9-7.2 14.6-5 4.6 3.9-11.1 15.9-14.6 5zm36.8 19c-5.6 4.5-16.2.2-9.1-6.1 5.5-4.9 18.9.5 9.1 6.1zm-29.9-41.5c3.9-3.5 16.8 3.3 15.1 6.7-2.4 4.5-22.8-.2-15.1-6.7zm3-11.3c1.9 3.3 5 2.3 1 4.9-2.1 1.3-9.9.8-11.6-.2-8.6-5 4.6-11.1 10.6-4.7zm47.2 73.3c-8.6 7.5-9.1-11.5-3.3-13.7 4.6-1.9 6.9 11.1 3.3 13.7zm-54.8-92.2c5.6 6.5 4.1 12.8-4.6 6.5-8.9-6.4-1-13.8 4.6-6.5zm69.5 70.3c-8.6-7.2 6-6.6 9.5-2.7 2.6 2.8 2.5 7.9-2.1 8-2.6 0-6-3.6-7.4-5.3zm-18.1-7.8c5.3-5.3 2.5 11.1-1.6 13.1-3.3 1.6-5.2.4-5.4-3-.3-3.8 4.6-7.7 7-10.1zm-10.5 33.9c1.7 3.5 1.5 21-5.8 14.9-3.4-2.7 1.7-16.1 5.8-14.9zm41.3-7.1c8.2 5.8-4.3 14.4-7.6.7-1.9-8.3 4.2-5.9 7.6-.7zM532.2 459c-7.5-5.9-1.4-16.2 3.8-7 2.7 4.9-.1 15.9-3.8 7zm24.7 62.3c7.4 7.4-3 12.9-6.5 1.2-2.6-8.5 1.9-6.4 6.5-1.2zm-32.8-39.4c4.1-2.8 21-.4 15.3 3.8-2.2 1.6-19.9 1.6-15.3-3.8zm64.5 41.2c1.6 2 3.5 9.7-.9 10.1-2.3.2-6.7-8.5-6.8-9.9-.6-5.7 4.6-4 7.7-.2zm-37-41.9c5-6 23-3.1 8 3.1-3.2 1.2-16.5 1.5-8-3.1zm3.5 20.3c5.2 4.9-1.6 13.5-6.2 3.9-5.3-11 .4-7.5 6.2-3.9zm-31.9 15.1c-6.8-.4-1.8-9.9 2.3-10.6 7.1-1.2 4.7 10.9-2.3 10.6zm15.5-40.9c-3.6-4.3 2.6-11.5 6.8-3.7 4.8 9-.1 9.4-6.8 3.7zm-18.2-.9c2.9 3.1-12.4 8.3-13.6.8-1-6.8 11.6-2.1 13.6-.8zm69.2 65.4c3.2 6.7-.4 14.5-5.2 5.5-3.4-6.3-2.5-11.7 5.2-5.5zm-6.7-35.8c2.1 9.7-10.7 4-11.9-.9-1.7-6.8 9.6-1 11.9.9zm-39.3 41.2c-5.3 4.4-6.3-15.8-3.3-16.3 5.3-.9 4.9 14.1 3.3 16.3zm26.9-4.5c-5.7-4.8-2.8-12.3 3.9-5.5 6 6-.2 12-3.9 5.5zm-12.9 7.3c-4.7-4.8-3.5-16.2 3.1-7.5 2.7 3.6 2.2 11.3-3.1 7.5zM482.4 522c-2.7 2.5-6.5 2.6-7.1-1.4-.7-4.1 5.2-6.9 8.1-7.8 11.9-3.4 3.7 4.6-1 9.2zm-1.4-31c-2.3 1.3-17.4 12.7-15.7 1.8 1-5.7 19.2-4.8 15.7-1.8zm28 62c-3 3.7-5.4-.1-5.6-2.8-.3-2.6 3.1-8.3 5.4-9.5 6.8-3.8 3.3 9.3.2 12.3zm-6.3-40c-2.8 3.8-6.9-.2-5.8-3.6.7-2.1 12.5-7.3 13-4.9.2 1.6-5.8 7-7.2 8.5zm49.9 40.8c2.2 3.1 4.4 12.9-2.3 9.5-3.6-1.8-4.3-18.6 2.3-9.5zm-42.3-33.7c7-4 4.4 10-1.2 10.1-7.4.1-1.9-7.9 1.2-10.1zm22 42.9c4.2-2.6 1.5-24.8-5-10.4-1.6 3.5-2.1 15.8 5 10.4z"/>
    <path class="st0" d="M532.3 563c-6.4 6.5-6.3-8.4-4.2-11.7 7.2-11.6 7.5 9.3 4.2 11.7zM480 464.7c3 2.2 4.5-.3 2.3 3.7-.9 1.6-7.7 3.3-9.1 3.2-9.8-.9-.5-10.2 6.8-6.9zm14.7 73.8c-4.6 4.6-6.1-8.7.9-11.5 6.5-2.6 2.3 9.2-.9 11.5zm3.2-41.9c-3.8 4.7-15.4 6.4-9.4-1.6 4-5.4 19.1-2.5 9.4 1.6zM557 418.1c-3.6 1.5-11 10.7-6.5 14.6 3.9 3.3 15.9-9.8 6.5-14.6zm12.7 39.5c5.2-4.8 2.9-15.9-4.5-10-5.9 4.7-2.3 18.9 4.5 10zm-36.1-36.3c-4.1 3.3.3 17.5 4.8 15.8 3.3-1.2 4.3-21.5-4.8-15.8zm-10.4-2.4c2.5 2.1.9 4.4 4.3 2.7 1.1-.5 2.4-9 2.4-9.5-.2-12.5-13.9-2.6-6.7 6.8zm63.5 62c8.8-7.3-10.6-10.9-13.6-5-1.9 3.8 10.5 6.9 13.6 5zm-82.1-69c5.4 7 11.9 6 7.2-3.6-5-9.8-13.5-3.1-7.2 3.6zm59.2 73.5c-5.8 5.8 10 6.2 12.4 3.6 7.1-7.7-9.7-4.4-12.4-3.6zm29.3-17.5c3.2 1.6 18.6 6 15.8-2.6-1.7-5.6-17.5-.8-15.8 2.6zm-6.7 28.3c5.9 8.4 13-.1 3.6-5.7-7.9-4.7-9-.6-3.6 5.7zm-33.6-38.7c-3.2 3.4-4.6 20 1.3 15.7 1.6-1.2 5.3-20.1-1.3-15.7zm-6.4-4.7c2.6 3.4 10.2-10.9 3.1-13.4-6.5-2.1-3.8 11.1-3.1 13.4zm53.3 78.9c4.7 3.1 13.4 4 7.8-3.1-5.4-6.7-12-6.2-7.8 3.1zm12.8-44.5c4.6-4-14.9-9.7-15.5-5.3-.6 4.7 12.9 6.2 15.5 5.3zm-8.7 25.7c-2.9-5-11-6.7-6.6 1.7 4.4 8.5 12.7 3.3 6.6-1.7zm9.2-11.5c-5.3-6.9-15.5-4.1-6.8 2.6 3.1 2.3 11.3 1.7 6.8-2.6zm-13.8-78.5c3.2-2.6 3.5-6.9-1.2-7.3-4.3-.3-6.8 4.3-8.2 7.5-4.6 10.3 4.7 3.2 9.4-.2zm-30.5-6.5c2.2-2.8 6.6-4.7 7.8-8.3 1.2-3.4-.2-7.8-4.3-6.4-3.2 1.2-9.3 16-3.5 14.7zm56.9 37.7c4.1-2.4.9-5.3-1.8-6-2.6-.7-8.7 1.7-10.3 3.8-2.9 3.7-2.2 2.9 3.2 3.4 3.6.5 5.8 1.1 8.9-1.2zM587 441.4c4.3-2.1-1.2-11.3-7.5-1.2-6.8 11 2.6 4.4 7.5 1.2zm32.2 56c4.6 4.6 14.7 3.6 7.7-2.6-3.6-3.2-14.3-3.8-7.7 2.6zm-28.8-46.6c-7 7 10.8 7 12 0 1.5-8.9-8.8-3.1-12 0zm42.5 24.1c-.9-6.5-18.7-2.7-16.2 2.2 1.7 3.5 16.6 4.7 16.2-2.2z"/>
    <path class="st0" d="M631.5 478.8c7.8-5.2-12.2-11.5-14.6-3.9-1.3 4.1 11.2 6 14.6 3.9zm-88.4-67.6c1.7 2.9-.8 4.6 3.3 2.9 1.7-.7 4.9-7.8 4.9-9.1-.4-9.2-9.8-.8-8.2 6.2zm70.4 26.5c5.3-3.8-7.7-7.6-11.6-1-3.5 5.9 8.7 3.7 11.6 1zm-41.9-3.6c8.6-4.7 4.9-16.2-2.1-7.5-3.1 3.8-4.3 15.6 2.1 7.5zM575.5 468.3c3.5-.8 6-3.9 3.2-6.7-2.9-3-8.5.2-10.8 2.1-9.7 7.5.9 5.8 7.6 4.6z"/>
  </g>
</svg>
