<?xml version="1.0" encoding="utf-8"?>
<!-- Generator: Adobe Illustrator 22.1.0, SVG Export Plug-In . SVG Version: 6.00 Build 0)  -->
<svg version="1.1" id="Layer_1" xmlns="http://www.w3.org/2000/svg" xmlns:xlink="http://www.w3.org/1999/xlink" x="0px" y="0px"
	 viewBox="0 0 137.6 132.1" style="enable-background:new 0 0 137.6 132.1;" xml:space="preserve">
<style type="text/css">
	.st0{fill:#FFFFFF;}
</style>
<path class="st0" d="M101.2,58.4c-4.9,0-15.6,6-4.2,6.6C102,65.3,108.3,58.4,101.2,58.4z M80.6,63.7c5,0.2,12.2-6.2,4-6.4
	C79.1,57.1,69.6,63,80.6,63.7z M112.9,68.6c5.2,0,10.3-5.8,2.7-6.7C111.9,61.5,103.7,68.6,112.9,68.6z M100.1,71.3
	c-6.3-1.2-6.1,1.6-0.7,4C110.6,80.2,110.9,71.3,100.1,71.3z M66.7,43.1c-1.6,8,8.5,3.4,7.6-2.2C73.3,34.4,67,37.8,66.7,43.1z
	 M103.1,46c0-7.8-12.5,2.5-10.4,5.5C94.1,53.6,103.2,49.1,103.1,46z M107.8,52.8c4.8-0.2,10.3-8.8,3.4-8.4
	C107.8,44.6,102.5,51.8,107.8,52.8z M46.3,44.7c0,3.2,7.3,7,9.1,5.1C58.4,46.4,45.6,35.6,46.3,44.7z M121.6,57.5
	c4.8,1.3,6.6-4.3,1.5-5.8C117.1,49.9,111,57.5,121.6,57.5z M51.3,62.7c-2.9,0-10.6,2.3-5.2,5.6c2,1.2,10.6-1.8,9.3-4.8
	C54.2,62.7,52.9,62.4,51.3,62.7z M64,56.5c0.3-6.1-6.7-13.8-5.9-4.7C58.3,54.3,62.5,61.2,64,56.5z M50.4,35.1
	c2.3-0.4-1.8-12-6.2-9.7C39.4,27.8,47.7,35.1,50.4,35.1z M35.2,60.9c6.7,0.6,7.6-4.6,0.7-5.3C28.9,55,29.3,62.2,35.2,60.9z
	 M83.3,67.3c-7.2-1.1-0.3,6.4,3.6,5.5C93.7,71.2,88.4,66,83.3,67.3z M37.9,51.9c5,0.3,8.4-2.4,1.4-4.6C32.1,45,30.5,52.4,37.9,51.9z
	 M74.6,52.2c0-6.1-10,6.1-9.2,7.2C67.9,63,74.3,55.2,74.6,52.2z M22.3,68.3c5,1.3,7.2-4.9-0.3-5.3C15,62.7,17.1,68.3,22.3,68.3z
	 M62.3,67.5c0-8.1-8.1,4.6-6,7.6C58.9,78.7,62.8,70,62.3,67.5z M49.5,60.1c0.8,0.1,5.8-1,6-1.7c0.7-2.7-8.6-4.1-9.4-3.4
	C43.3,57.2,46.7,60.3,49.5,60.1z M71.2,63c-4.6,0.6-9.4,2.3-2.3,5C75.9,70.7,75.5,63.2,71.2,63z M80.1,53.7c2-0.8,9.7-5.1,5.8-7.8
	C81.4,42.8,76.8,53.7,80.1,53.7z M12.6,61c5.7-1.5,5.8-5.5-1.3-5.4C5.2,55.8,7.6,59.4,12.6,61z M35.2,73.9c3.4-0.7,11.2-5.3,4.2-5.9
	C35.6,67.7,29.8,71.2,35.2,73.9z M30.9,33.5c0.5,2.6,10.3,9,10.2,5.1C41.1,36.8,31.2,29.5,30.9,33.5z M21,50.2c-4.8,0-5,3-0.8,4.3
	C26.9,56.6,28.8,48.6,21,50.2z M23,39.9c-4.6,1.8,0.1,5.8,3.8,5.1C33.3,43.7,26.6,39.6,23,39.9z"/>
<path class="st0" d="M101.2,58.4c6.3-0.4,1.4,6.9-4.3,6.6C86,64.3,96,58.2,101.2,58.4z M80.6,63.7c-11.1,0-1.3-6.5,4.1-6.4
	C92.9,57.5,85.6,63.9,80.6,63.7z M112.9,68.6c-1.8,0.5-3.3,0.2-4.6-0.9c-1.3-2.9,7.9-8.6,10.5-4.4C121.2,67.5,116.2,69.1,112.9,68.6
	z M100.1,71.3c8.8,0,11.9,8.1,1.2,4.4C95.7,73.8,91.7,71.3,100.1,71.3z M94,31.8c2.3,2.3-2.1,11.7-5.9,10.2
	C84.1,40.5,88.6,30.8,94,31.8z M66.7,43.1c0.3-5.6,6.8-8.5,7.5-2C74.7,45.7,65,51.5,66.7,43.1z M103.1,46c0,3.9-9.5,7.3-10.3,4.7
	C91.7,47.5,103.1,39,103.1,46z M107.8,52.8c-1.2,0.5-2.4,0.5-3.6,0.1c-1-2.5,6-9.9,8.6-8.5C117.8,47.3,111.1,52.7,107.8,52.8z
	 M46.3,44.7c0-9,11.8,1.8,9,5.7C53.6,52.6,46,46.7,46.3,44.7z M121.6,57.5c-7.9,0.4-7.6-5.7,0.1-5.8
	C129.3,51.6,126.4,58.7,121.6,57.5z M51.3,62.7c1.6-0.3,2.9,0,4.1,0.8c1.2,3.1-7.7,5.7-9.3,4.8C40.7,65.1,48.5,62.8,51.3,62.7z
	 M64,56.5c-1.4,4.7-5.7-2.2-5.9-4.7C57.3,42.7,64.3,50.3,64,56.5z M50.4,35.1c-2.5,0-11.3-7.8-6.1-9.6C48.6,24,52.6,34.7,50.4,35.1z
	 M35.2,60.9c-6.3,1.5-6.4-7.5,1.9-4.9C43.6,58.1,41.1,61.5,35.2,60.9z M83.3,67.3c6.7-1.3,9.9,6.1,2.2,5.4
	C81.9,72.3,76.7,66.2,83.3,67.3z M37.9,51.9c-6.8,0.5-5.8-6.9,1.5-4.6C45.7,49.2,44,52.2,37.9,51.9z M74.6,52.2
	c-0.3,3-6.5,11-9.1,7.2C65.1,58.7,73.6,46.4,74.6,52.2z M22.3,68.3c-4.7,0-8.1-5.7-0.4-5.4C28.8,63.3,28.1,69.8,22.3,68.3z
	 M62.3,67.5c0.3,2.6-3.5,11.2-6,7.6C54.2,72.1,62.3,59.1,62.3,67.5z M49.5,60.1c-2.9,0.4-6.1-3.1-3.7-5.5c1.4-1.4,10.1,1.7,9.6,3.7
	C55.2,59,50.4,60.1,49.5,60.1z M56.2,35.7c3.8-2.5,6.4,3.2,4.7,6.1C58.2,46.6,54,39.6,56.2,35.7z M71.2,63c4,0,5.1,7.9-2.1,5.2
	C62.4,65.6,66.2,63.9,71.2,63z M80.1,53.7c-3,0.2,0.6-10.1,4.9-8C90.8,48.5,81.6,52.1,80.1,53.7z M12.6,61c-4.9-1.2-7.4-5.3-1.2-5.5
	C17.8,55.4,18.8,59,12.6,61z M35.2,73.9c-5.1-2.6,0.1-6.4,4.2-5.9C46.1,68.8,38.7,73.2,35.2,73.9z M30.9,33.5
	c0-4.1,10.9,3.1,10.4,5.1C40.5,42.3,31.3,36.2,30.9,33.5z M21,50.2c6.5-1.3,6.7,5.7-0.1,4.7C16.2,54.2,15.6,50.2,21,50.2z M23,39.9
	c3.2-0.1,10.8,3.9,3.9,5C23.4,45.4,17.8,40.7,23,39.9z M72,11.1c0-3.4,2.5-5,4.8-2c1.4,1.9-0.3,11.4-3.2,10.8
	C72.3,19.6,72,11.6,72,11.1z M89.5,24.7c0.5-2.5-0.6-6.8,1.5-8.8c2.3-2.2,4.1-2,4.9,0.8C96.8,19.6,89.5,28,89.5,24.7z M42.9,11.2
	c-1.3-8,12.5,5,6.3,8.1C47.4,20.2,42.8,13.1,42.9,11.2z M67.6,26.3c-0.7-2.9,2.9-3.7,4.5-2c1.5,1.6-1.8,10.7-3.3,9.9
	C67.8,33.5,67.6,26.9,67.6,26.3z M22.3,34.6c-2.6-0.3-8.9-4.2-4.1-5.8c1.3-0.4,8.4,3.1,7.6,4.7C24.9,34.3,23.7,34.7,22.3,34.6z
	 M60.2,27.2c-0.9,4.7-5.6,0-5.5-2.8C55,17.8,60.5,22.2,60.2,27.2z M26.8,19.3c-0.3,1.6,7.5,8.4,8.5,7.3
	C39.7,21.9,26.2,12.4,26.8,19.3z"/>
<path class="st0" d="M26.8,19.3c-0.6-6.7,12.8,2.4,8.5,7.2C34.4,27.5,26.4,21.3,26.8,19.3z M104.2,36.2c-0.8,0.8-1.8,1.2-3,1.3
	c-1.6-1.8,2.3-9.1,3.9-9.4C110.5,27,107.2,34.8,104.2,36.2z M57.3,10.1c-0.7-7.5,11.8,6.4,5.3,8C60.9,18.6,57,11.9,57.3,10.1z
	 M78.6,31.2C78,28.1,81,20,83.9,25.8C85.6,29.3,78.6,40.3,78.6,31.2z M94,99.6c2.3-2.3-2.1-11.7-5.9-10.2
	C84.1,91,88.6,100.7,94,99.6z M66.7,88.3c0.3,5.6,6.8,8.5,7.5,2C74.7,85.8,65.2,79.9,66.7,88.3z M103.1,85.4c0-3.9-9.5-7.3-10.3-4.7
	C91.7,83.9,103.1,92.4,103.1,85.4z M109.2,80.9c-1.2-0.5-2.4-0.5-3.6-0.1c-1,2.5,6,9.9,8.6,8.5C119.2,86.4,112.5,81,109.2,80.9z
	 M46.3,86.8c0,9,11.8-1.8,9-5.7C53.6,78.8,46,84.8,46.3,86.8z M121.6,74c-7.9-0.4-7.6,5.7,0.1,5.8C129.3,79.8,126.3,72.7,121.6,74z
	 M54.4,72.2c0-5.4-6.5,0.7-7.2,3.3C45,83.1,53.3,77,54.4,72.2z M50.4,96.2c-2.5,0-11.3,7.8-6.1,9.6C48,107.2,53.2,97.2,50.4,96.2z
	 M37.9,79.5c-6.8-0.5-5.8,6.9,1.5,4.6C46,82.1,43.7,79.5,37.9,79.5z M74.6,79.2c-0.3-3-6.5-11-9.1-7.2C65,72.7,73.8,85,74.6,79.2z
	 M80.1,77.8c-3-0.2,0.6,10.1,4.9,8C91.3,82.8,80.9,79.5,80.1,77.8z M12.6,70.4c-4.9,1.2-7.4,5.3-1.2,5.5
	C17.3,76.1,19.3,72.2,12.6,70.4z M30.9,97.8c0,4.1,10.9-3.1,10.4-5.1C40.5,89,31.4,95.2,30.9,97.8z M21,81.3c8.7,1.7,5-7.5-1.4-4.4
	C15.7,78.7,16.7,81.3,21,81.3z M23,91.6c3.2,0.1,10.8-3.9,3.9-5C23.3,86,18,90,23,91.6z M72,120.3c0,3.4,2.5,5,4.8,2
	c1.4-1.9-0.3-11.4-3.2-10.8C72.3,111.7,72,119.7,72,120.3z M89.5,106.8c0.5,2.5-0.6,6.8,1.5,8.8c2.3,2.2,4.1,2,4.9-0.8
	C96.8,111.8,89.5,103.4,89.5,106.8z M42.9,120.3c-1.3,8,12.5-5,6.3-8.1C47.4,111.2,42.8,118.4,42.9,120.3z M67.6,105.1
	c-0.7,2.9,2.9,3.7,4.5,2c1.5-1.6-1.8-10.7-3.3-9.9C67.8,97.8,67.6,104.4,67.6,105.1z M22.3,96.8c-2.6,0.3-8.9,4.2-4.1,5.8
	c1.3,0.4,8.4-3.1,7.6-4.7C24.9,97,23.7,96.6,22.3,96.8z M60.9,102.7c-1.2-6.9-7.5,2.3-6,5.7C57.9,115.4,61.1,106.1,60.9,102.7z
	 M28.1,114.7c3.5,2.2,9.4-7.2,7.1-9.8C34.8,104.4,22.5,111.2,28.1,114.7z"/>
<path class="st0" d="M26.8,112.2c-0.6,6.7,12.8-2.4,8.5-7.2C34.4,103.9,26.4,110.2,26.8,112.2z M104.2,95.2c-0.8-0.8-1.8-1.2-3-1.3
	c-1.6,1.8,2.3,9.1,3.9,9.4C110.5,104.3,107.2,96.6,104.2,95.2z M57.3,121.2c-0.7,7.4,11.6-6.4,5.2-8
	C60.7,112.8,57.1,119.9,57.3,121.2z M78.6,100.3c-0.6,3.1,2.4,11.2,5.3,5.4C85.6,102.2,78.6,91.2,78.6,100.3z M58.3,86.5
	c-2.4,4.3,2.3,6.6,5.1,2.2c0.5-0.8,2-8.7,0.1-9.1C62.1,79.2,58.8,85.4,58.3,86.5z"/>
</svg>
