<?xml version="1.0" encoding="utf-8"?>
<!-- Generator: Adobe Illustrator 21.1.0, SVG Export Plug-In . SVG Version: 6.00 Build 0)  -->
<svg version="1.1" id="Layer_1" xmlns="http://www.w3.org/2000/svg" xmlns:xlink="http://www.w3.org/1999/xlink" x="0px" y="0px"
	 viewBox="0 0 50 50" style="enable-background:new 0 0 50 50;" xml:space="preserve">
<style type="text/css">
	.st0{fill:#393939;}
</style>
<g>
	<g>
		<path class="st0" d="M25.2,0.2C11.5,0.2,0.4,11.3,0.4,25s11.1,24.8,24.8,24.8S50,38.7,50,25S38.9,0.2,25.2,0.2z M25.2,46
			C13.6,46,4.3,36.6,4.3,25.1s9.3-21,20.9-21S46.1,13.5,46.1,25S36.7,46,25.2,46z"/>
	</g>
</g>
<g>
	<g>
		<path class="st0" d="M37.9,18.2c-0.9,0.4-1.8,0.6-2.8,0.8c1-0.6,1.8-1.5,2.1-2.7c-0.9,0.5-2,0.9-3.1,1.2C33.2,16.6,32,16,30.6,16
			c-2.7,0-4.8,2.1-4.8,4.8c0,0.4,0,0.7,0.1,1.1c-4-0.2-7.5-2.1-9.9-5c-0.4,0.7-0.6,1.5-0.6,2.4c0,1.7,0.8,3.1,2.1,4
			c-0.8,0-1.5-0.2-2.2-0.6v0.1c0,2.3,1.7,4.3,3.9,4.7c-0.4,0.1-0.8,0.2-1.3,0.2c-0.3,0-0.6,0-0.9-0.1c0.6,1.9,2.4,3.3,4.5,3.3
			c-1.6,1.3-3.7,2.1-6,2.1c-0.4,0-0.8,0-1.1-0.1c2.1,1.4,4.6,2.2,7.4,2.2c8.8,0,13.7-7.3,13.7-13.7v-0.6
			C36.4,20,37.3,19.2,37.9,18.2z"/>
	</g>
</g>
</svg>
